<?xml version="1.0" encoding="UTF-8" standalone="no"?>
<!-- Created with Inkscape (http://www.inkscape.org/) -->

<svg
   xmlns:dc="http://purl.org/dc/elements/1.1/"
   xmlns:cc="http://creativecommons.org/ns#"
   xmlns:rdf="http://www.w3.org/1999/02/22-rdf-syntax-ns#"
   xmlns:svg="http://www.w3.org/2000/svg"
   xmlns="http://www.w3.org/2000/svg"
   xmlns:sodipodi="http://sodipodi.sourceforge.net/DTD/sodipodi-0.dtd"
   xmlns:inkscape="http://www.inkscape.org/namespaces/inkscape"
   width="45.155556mm"
   height="45.155556mm"
   viewBox="0 0 160 160"
   id="svg3435"
   version="1.1"
   inkscape:version="0.91 r13725"
   sodipodi:docname="GIMPRectEllipseCallig.svg">
  <defs
     id="defs3437" />
  <sodipodi:namedview
     id="base"
     pagecolor="#ffffff"
     bordercolor="#666666"
     borderopacity="1.0"
     inkscape:pageopacity="0.0"
     inkscape:pageshadow="2"
     inkscape:zoom="0.98994949"
     inkscape:cx="63.489134"
     inkscape:cy="-133.7431"
     inkscape:document-units="px"
     inkscape:current-layer="layer1"
     showgrid="false"
     fit-margin-top="0"
     fit-margin-left="0"
     fit-margin-right="0"
     fit-margin-bottom="0"
     inkscape:window-width="1920"
     inkscape:window-height="1021"
     inkscape:window-x="0"
     inkscape:window-y="0"
     inkscape:window-maximized="1" />
  <metadata
     id="metadata3440">
    <rdf:RDF>
      <cc:Work
         rdf:about="">
        <dc:format>image/svg+xml</dc:format>
        <dc:type
           rdf:resource="http://purl.org/dc/dcmitype/StillImage" />
        <dc:title></dc:title>
      </cc:Work>
    </rdf:RDF>
  </metadata>
  <g
     inkscape:label="Layer 1"
     inkscape:groupmode="layer"
     id="layer1"
     transform="translate(-93.765778,-48.866211)">
    <path
       style="fill:#000000"
       d="m 196.94716,194.07454 c -5.26777,-2.61821 -9.64128,-7.35796 -13.18829,-14.29272 -3.02548,-5.9151 -9.70247,-32.42719 -9.70247,-38.52523 l 0,-5.52581 13.4375,-3.91915 c 15.65045,-4.56458 17.92671,-4.7317 20.82519,-1.52891 2.35456,2.60176 1.94338,3.09982 -3.63769,4.40628 -2.0625,0.48281 -8.39063,2.31437 -14.0625,4.07015 -10.09045,3.12358 -10.31043,3.27661 -10.21644,7.10749 0.0528,2.15335 0.80561,6.16518 1.67282,8.91518 l 1.57675,5 1.48232,-5.24548 c 1.61529,-5.71603 4.57314,-8.60242 12.45985,-12.15883 4.80838,-2.16828 5.32677,-2.18315 8.29554,-0.23793 1.74166,1.14118 3.16666,2.54798 3.16666,3.12623 0,0.57825 -2.51525,2.01195 -5.58945,3.186 -7.47947,2.85643 -11.91055,8.24344 -11.91055,14.48004 0,5.8127 3.33086,8.72733 9.96563,8.7203 5.64438,-0.006 12.53437,-4.13182 12.53437,-7.50577 0,-2.42969 0.14415,-2.45274 3.125,-0.49961 4.70875,3.08529 4.26973,8.59884 -0.9375,11.77375 -8.30829,5.06566 -23.12567,1.70457 -29.07458,-6.59512 -1.98526,-2.76976 -1.99523,-2.7616 -1.1697,0.95642 1.54585,6.96216 6.55174,16.65026 9.65334,18.68251 2.67866,1.75513 4.24577,1.82706 11.97903,0.54995 7.06474,-1.16672 9.90352,-2.33072 13.78331,-5.65168 8.64044,-7.39589 9.73251,-22.38974 1.9998,-27.45641 -2.61881,-1.71591 -3.29744,-1.71597 -6.61456,-6.2e-4 -2.03299,1.0513 -5.10034,3.58001 -6.81633,5.61935 -2.89276,3.43784 -3.31327,3.5725 -5.7739,1.84901 -3.94051,-2.76004 -3.23911,-6.04355 2.21347,-10.36207 6.61183,-5.23667 12.83843,-5.24522 20.04123,-0.0275 6.18894,4.48324 8.85206,10.01856 8.81394,18.31985 -0.038,8.28063 -3.73151,15.79188 -9.56508,19.45203 -9.00103,5.64752 -21.23996,7.05932 -28.76671,3.31834 z m -43.06478,-6.16791 c -2.73,-2.31296 -2.78717,-2.59842 -0.76348,-3.81211 1.60011,-0.95964 2.1875,-2.93241 2.1875,-7.34676 0,-7.98383 -1.78215,-9.42434 -8.65808,-6.99837 -6.28367,2.21701 -16.98873,1.67995 -22.41167,-1.12436 -2.09056,-1.08107 -5.31362,-3.9487 -7.16235,-6.37252 -2.99452,-3.92601 -3.28387,-5.15753 -2.65145,-11.28504 0.71843,-6.96098 4.21598,-15.76737 6.50855,-16.38776 0.6875,-0.18604 2.26532,0.43046 3.50626,1.37001 2.11706,1.60288 2.1325,2.00448 0.25013,6.5096 -1.10337,2.64074 -2.54564,7.20877 -3.20505,10.15117 -2.41396,10.77159 5.08087,14.98261 19.72245,11.08118 6.90051,-1.83873 8.27928,-1.87638 11.29318,-0.30841 6.13865,3.19361 8.78211,7.19637 9.69781,14.6845 1.35581,11.08708 -2.06387,15.13406 -8.3138,9.83887 z m 48.29902,-70.62749 c -6.28893,-2.22371 -12.50102,-8.87461 -14.49014,-15.5137 -2.07121,-6.913071 0.1724,-14.210001 6.2325,-20.270101 12.69539,-12.69539 33.83999,-7.1623 39.0472,10.21782 3.78008,12.616771 -9.01097,27.655371 -23.28956,27.381821 -1.375,-0.0263 -4.75,-0.84347 -7.5,-1.81584 z m -90.625,-26.872321 0,-22.5 26.875,0 26.875,0 0,22.5 0,22.500001 -26.875,0 -26.875,0 0,-22.500001 z"
       id="path3590"
       inkscape:connector-curvature="0" />
  </g>
</svg>
