<?xml version="1.0" encoding="UTF-8" standalone="no"?>
<!-- Created with Inkscape (http://www.inkscape.org/) -->
<svg id="svg3387" xmlns:rdf="http://www.w3.org/1999/02/22-rdf-syntax-ns#" xmlns="http://www.w3.org/2000/svg" height="500" viewBox="0 0 800 500" width="800" version="1.1" xmlns:cc="http://creativecommons.org/ns#" xmlns:dc="http://purl.org/dc/elements/1.1/">
 <metadata id="metadata3393">
  <rdf:RDF>
   <cc:Work rdf:about="">
    <dc:format>image/svg+xml</dc:format>
    <dc:type rdf:resource="http://purl.org/dc/dcmitype/StillImage"/>
    <dc:title/>
   </cc:Work>
  </rdf:RDF>
 </metadata>
 <path id="path3397" d="m377.67 412.01c-0.4642-0.46421-9.6986-1.2876-20.521-1.8297-10.822-0.54211-24.458-1.5325-30.302-2.2009-25.92-2.9646-33.669-3.91-41.875-5.1091-4.8125-0.70321-15.5-2.104-23.75-3.113-35.431-4.333-38.562-5.3455-37.886-12.254 0.65237-6.6707 4.7354-7.9977 18.727-6.0866 6.4125 0.8759 18.128 2.3752 26.034 3.3316 7.9062 0.95651 18.312 2.3379 23.125 3.0697 4.8125 0.73182 13.812 1.919 20 2.6382 6.1875 0.7192 16.031 1.8621 21.875 2.5397 32.12 3.7247 102.7 5.9374 116.88 3.6641 24.521-3.932 31.707-5.4056 45.322-9.2933 4.9445-1.4119 7.4999-1.5531 10.32-0.56997 3.8066 1.327 5.9233 5.5539 4.5602 9.1062-1.841 4.7976-14.89 9.6981-33.348 12.523-7.2074 1.1032-15.819 2.5506-19.137 3.2166-6.7572 1.3562-78.7 1.6859-80.019 0.36679zm305.95-100.27c-2.1182-1.2917-9.6497-8.8762-16.737-16.855-22.477-25.304-52.342-51.226-96.676-83.913-2.7975-2.0625-9.3388-6.9927-14.536-10.956-5.1976-3.9632-13.669-10.422-18.825-14.352-13.83-10.542-35.01-31.605-39.879-39.66-3.5247-5.8304-4.3547-8.5998-4.839-16.147-0.6586-10.262 0.65068-13.977 5.5881-15.854 5.4243-2.0623 9.1303 1.353 9.1303 8.4143 0 9.7668 2.3825 14.998 11.139 24.456 12.087 13.055 26.347 25.159 53.236 45.186 6.875 5.1207 15.466 11.612 19.09 14.425 3.6248 2.8132 8.9685 6.6074 11.875 8.4314 10.229 6.4194 36.806 29.874 61.989 54.705 33.484 33.017 35.844 36.301 30.171 41.974-3.1139 3.1139-5.7947 3.1494-10.726 0.14214zm-634.38-84c-1.711-1.711-2.3717-3.5513-1.9204-5.3494 1.0466-4.1702 21.396-34.103 29.431-43.292 3.9076-4.4688 10.723-13.188 15.146-19.375 4.4228-6.1875 12.268-16.1 17.434-22.028 5.1659-5.928 13.049-15.123 17.518-20.434 4.4688-5.3107 11.219-13.155 15-17.431 3.7812-4.2766 11.708-13.644 17.616-20.816 14.3-17.362 34.374-38.337 38.959-40.708 6.6045-3.4153 13.483 0.95451 11.472 7.2886-0.46281 1.4582-7.3846 9.7638-15.382 18.457-7.9972 8.6931-19.884 22.206-26.415 30.028-6.5312 7.8225-14.688 17.404-18.125 21.293-3.4375 3.8887-9.3438 10.882-13.125 15.54-3.7812 4.6583-10.812 12.952-15.625 18.43-4.8125 5.4782-10.438 12.404-12.5 15.39-2.0625 2.9861-6.714 8.987-10.337 13.335-13.115 15.742-19.031 23.452-26.551 34.6-11.513 17.068-16.965 20.704-22.596 15.073z"/>
</svg>
