<?xml version="1.0" encoding="UTF-8" standalone="no"?>
<!-- Created with Inkscape (http://www.inkscape.org/) -->
<svg id="svg2" xmlns:rdf="http://www.w3.org/1999/02/22-rdf-syntax-ns#" xmlns="http://www.w3.org/2000/svg" height="62.776mm" viewBox="0 0 262.49664 222.43435" width="74.082mm" version="1.1" xmlns:cc="http://creativecommons.org/ns#" xmlns:dc="http://purl.org/dc/elements/1.1/">
 <metadata id="metadata7">
  <rdf:RDF>
   <cc:Work rdf:about="">
    <dc:format>image/svg+xml</dc:format>
    <dc:type rdf:resource="http://purl.org/dc/dcmitype/StillImage"/>
    <dc:title/>
   </cc:Work>
  </rdf:RDF>
 </metadata>
 <g id="layer1" transform="translate(-68.771 -120.93)">
  <g id="g3345" transform="matrix(.50654 0 0 .44652 33.936 66.934)">
   <rect id="rect3336" style="color-rendering:auto;color:#000000;isolation:auto;mix-blend-mode:normal;shape-rendering:auto;solid-color:#000000;image-rendering:auto" height="174.29" width="208.57" y="120.93" x="77.143"/>
   <path id="path3340" style="color-rendering:auto;color:#000000;isolation:auto;mix-blend-mode:normal;shape-rendering:auto;solid-color:#000000;image-rendering:auto" d="m105.39 432.26-36.619 21.457c4.5597 6.4461 9.0943 12.903 13.766 19.271 3.1281 4.4552 6.3386 8.8295 9.6699 13.135 2.9226 3.274 5.7418 6.6507 9.2461 9.3164 4.6344 2.7463 9.7582 4.3569 15.006 5.4199 5.7018 0.96554 11.498 1.0488 17.266 1.123 5.621 0.038 11.242 0.011 16.863-0.002 0.0257-0.13392 0.047-0.2688 0.084-0.40039 0.21093-0.75103 0.62923-1.4285 0.94335-2.1426 0.57892-0.80881 1.0254-1.7084 1.6172-2.5078 0.0794-0.10719 0.28685-0.0701 0.35352-0.18555 0.34564-0.5988 0.52848-1.2812 0.84765-1.8945 1.5255-2.9314-0.40079 1.913 1.3398-2.9043 1.2241-1.9976-0.76294 1.3577 1.2617-3.0957 0.16336-0.35934 0.31625-1.0776 0.69336-0.96093 0.003 0.00085 0.003 0.005 0.006 0.006 0.0898-0.85817 0.0957-0.95074 0.76171-2.8437l1.1035-1.8457c0.2051-0.1897 0.448-0.34455 0.61523-0.56836 0.4518-0.60469 0.77239-1.3024 1.2305-1.9023 0.18748-0.24553 1.0247-0.81859 1.1543-1.2441 0.22319-0.73262 0.3074-1.5016 0.46094-2.252l0.0742-0.16016c-3.9963-0.0352-7.9921-0.14176-11.969-0.55469-4.868-0.65713-9.448-1.8957-13.9-3.9863-3.4886-1.9801-5.7182-5.3924-8.5664-8.1406-3.3136-4.2919-6.7025-8.5125-9.7754-12.99-4.7255-6.234-9.5007-12.421-13.533-19.146zm161.67 27.906c-3.8207-0.08-7.6764 0.63351-11.396 1.4629-1.4635 0.44622-2.8602 1.1302-4.3574 1.4453-3.1762 0.66856-6.614 0.29447-9.6797 1.6191-1.369 0.5257-2.6367 1.3106-4.0352 1.752-2.9235 0.92273-6.1977 0.9103-8.9258 2.541-4.8961 0.56745-9.4765 2.0971-14.275 2.8672-4.8956 0.57478-9.4718 2.1241-14.273 2.8789-5.0437 0.5666-9.8906 2.1579-14.926 2.334-4.3478 0.008-8.6966 0.0188-13.045 0.0273-0.74392 0.69715-0.93462 0.82337-1.3652 0.84571-0.22423 0.51592-0.68179 0.99471-0.91797 1.5117-0.10384 0.2273-0.18761 0.46362-0.28125 0.69531 0.43512 1.8044-1.7856 3.9363-2.6465 5.1562-0.2527 0.35813-0.40637 0.78211-0.67188 1.1309-1.4882 1.9549-1.4488 0.87873-1.4277 1.9062-0.46052 0.37014 0.0382 0.88836-0.125 1.2871-0.38728 0.94602-0.91171 1.83-1.4062 2.7246-0.12895 0.23326-0.38714 0.39623-0.46094 0.65234-0.0325 0.11269 0.21081-0.10133 0.31641-0.15234l-0.94141 2.1699c-0.79728 2.4042 0.0457 0.1127-1.623 3.4375-0.18012 0.35886-0.24188 0.77376-0.45313 1.1152-0.42025 0.67931-0.97608 1.2676-1.4258 1.9277 2.4786-0.39877 4.9421-0.93919 7.4219-1.3555 4.8889-0.32409 9.5271-1.9045 14.309-2.8281 4.8694-0.39768 9.497-1.9566 14.271-2.8711 4.4962-1.0137 9.0878-2.0477 13.443-3.5859 4.3903-1.9825 9.2326-2.1911 13.836-3.3496 4.6487-1.4224 9.4502-2.1957 14.305-2.3223 4.1884 0.1657 7.4528 1.9818 10.127 5.1094 3.2955 3.2312 4.8258 7.5104 6.6719 11.627 1.7628 4.066 3.5928 7.9156 4.4238 12.303 0.30021 0.74801 0.5679 1.5027 0.82227 2.2598 0.20669 0.13242 0.4123 0.26984 0.58008 0.4082 0.18373 0.0657 0.36735 0.13396 0.55273 0.19336-0.24575-0.0178-0.31276-0.0231-0.36328-0.0254 0.003 0.003 0.005 0.006 0.008 0.01 0.18099 0.0312 1.0881 0.15777 2.0156 0.43946 1.9693 0.59804 0.75053 0.44742 2.3086 1.0781 0.87756 0.35524 1.8464 0.50164 2.6699 0.96875 0.25661 0.14556 0.47448 0.34407 0.68164 0.55664 0.0932 0.0303 0.23356 0.072 0.30469 0.0937 0.60848 0.18593 1.1352 0.57251 1.7031 0.85938-0.0654 0.0127-0.25464 0.009-0.19532 0.0391 0.52128 0.26611 1.1041 0.40042 1.6152 0.68555 0.08 0.0446 0.0559 0.1745 0.084 0.26171 0.9699 0.29566 3.5706 0.71001 4.2246 2.0586 0.2625 0.11167 0.52532 0.2245 0.76953 0.37109 0.78176 0.46928 1.1919 0.75219 1.4219 0.94336 0.12728 0.0486 0.29288 0.10888 0.625 0.20508 1.5642 0.45308 2.9286 0.49038 4.1797 1.6328 0.14824 0.13536-0.40096 0.0143-0.60157 0.0215 1.9283 0.52244 2.4783 0.68794 4.4043 1.8203 0.23659 0.1391 0.83045 0.49869 0.57227 0.5918-0.10103 0.0364-0.25231 0.028-0.41797 0 0.2284 0.067 0.45363 0.14263 0.68359 0.20507 0.89343-0.15207 4.2366 1.6832 4.7227 1.9512 0.11377 0.0946 0.22026 0.19611 0.33984 0.2832 0.26345 0.19188 0.99739 0.32528 0.86914 0.54687 0.0264 0.009 0.0519 0.0201 0.0781 0.0293 1.6381-3.1736 3.0624-6.4444 4.2402-9.8379 1.7444-4.6882 2.5428-9.6738 1.873-14.666-0.61034-4.8055-1.6867-9.4702-3.3516-14.027-1.0388-4.6346-2.9505-8.8118-4.8516-13.135-2.0138-4.414-3.7108-9.0683-7.2324-12.555-3.0823-3.9679-6.9019-7.1109-11.998-7.9609-1.2594-0.22836-2.5292-0.34247-3.8027-0.36914zm-97.041 17.871c-0.42872 0.0742-0.9903 0.19256-1.8711 0.44727-0.50139 0.14499 1.0786 0.0264 1.5547-0.1875 0.1005-0.0452 0.20877-0.1437 0.3164-0.25977zm91.629 46.881c-0.19315 0.10675 0.44182 0.69624 0.22266 0.64063-0.76432-0.19397-1.2166-0.34193-1.5156-0.4668 0.13756 0.93376 0.26938 1.8695 0.36719 2.8144 0.56279 4.546-1.1135 8.7408-2.8633 12.809-1.5162 4.4264-3.4107 8.9053-6.5664 12.41-2.5546 3.2448-5.2779 6.6413-8.5605 9.1934-2.5071 3.3212-6.5699 4.5746-9.4922 7.4844-3.5546 1.514-7.1772 2.8077-10.838 4.0898-5.2079 1.9161-10.707 2.5463-16.203 2.9277-5.696 0.29547-11.404 0.27153-17.105 0.26953l-34.283 24.902c5.7449 0.0129 11.491 0.0463 17.234-0.0879 5.6619-0.19672 11.368-0.47688 16.859-1.9941 4.4046-1.3825 9.0666-2.4021 12.973-4.9316 2.2431-0.63862 4.0386-1.7142 6.1699-2.5215 0.75088-0.2844 1.6391-0.17363 2.3438-0.55859 3.5745-1.9528 5.4127-2.9537 8.1211-4.4297 118.65-68.516-83.202 48.062 44.338-25.994 3.3332-2.4217 6.6549-4.7922 9.7715-7.5059 3.4558-2.2554 6.6802-4.7072 9.4375-7.7988 2.1723-2.4379 4.4524-4.7865 6.4297-7.3828-0.68503-0.38329-1.1493-0.66357-1.9785-1.291 0.011 0.0445 0.0752 0.1512 0.0332 0.13281-0.38346-0.16772-0.72341-0.42219-1.1016-0.60156-0.0731-0.0347-0.2018-0.10628-0.24024-0.0352-0.0183 0.0339 0.0443 0.0768 0.10352 0.10742-1.445-0.61057-1.6323-0.62983-1.9473-0.83203 0.12997 0.089 0.42252 0.2825 0.3125 0.21875-0.94055-0.54492-1.8883-1.0833-2.7813-1.7031-0.0358-0.0248-0.0645-0.0592-0.0957-0.0899-0.006 0.0121-0.008 0.026-0.0312 0.0293-1.5105 0.21333-1.0583-1.034-1.2559-0.43359-1.2319 0.24563-1.9265-1.5157-3.0859-1.7305-0.13685-0.0254-0.26993 0.11981-0.40626 0.0918-0.485-0.0998-0.94107-0.30817-1.4102-0.46679-0.14273-0.0483-0.28032-0.17277-0.42578-0.16407l0.31054 0.18946c-0.11513-0.0635-0.47404-0.16094-0.3457-0.18946 0.0119-0.003 0.0234 0.00072 0.0352 0l-2.8906-1.752c-0.4532-0.41625-0.11275 0.21844-0.17578 0.16797-0.78757-0.63061-1.486-1.3693-2.2812-1.9902-0.38175-0.2981 0.11032 0.35089 0.33203 0.66211-0.87699-0.9207-2.2521-0.79956-3.2793-1.3965-0.56241-0.32683-1.0452-0.77824-1.6016-1.1152-0.0475-0.0288-0.008 0.0275 0.0469 0.0957 0.19358 0.12991 0.39181 0.25275 0.58398 0.38477 0.14291 0.0982-0.30826-0.15598-0.46289-0.23438-0.0246-0.036-0.078-0.0969-0.12109-0.15039-0.88949-0.59694-1.7862-1.1824-2.6797-1.7734zm-43.137 62.551c-1.4869 0.85861-0.55299 0.32037-2.1426 1.2383-1.7159 0.99091 2.4701-1.4164 2.5801-1.4766-0.14361 0.0783-0.29164 0.1588-0.4375 0.23828zm0.4375-0.23828c19.42-10.582 19.684-10.68 31.857-18.285-9.7605 5.6007-31.233 17.943-31.857 18.285zm61.223-53.154c0.015 0.0262 0.18258 0.15192 0.34375 0.28711-0.0873-0.11332-0.1801-0.21985-0.30664-0.2793-0.0319-0.015-0.0419-0.0161-0.0371-0.008zm-23.422 23.402c0.10869-0.0422-0.26627 0.21536-1.2441 0.8457-2.9184 1.8812-5.8738 3.7023-8.8496 5.4902-3.1663 1.828-9.1594 5.297-14.541 8.4102 0.52178-0.31141 1.0547-0.63178 1.5918-0.95312 3.125-1.8102 6.4299-3.7326 9.9434-5.793 0.42995-0.25213-0.27109 0.0835-1.0215 0.4375 7.0859-4.2694 13.747-8.2924 14.121-8.4375zm-35.889 21.254c-4.8645 2.8163-3.5694 2.0597-9.6504 5.582-9.5477 5.0804-3.9803 2.0925 9.4824-5.5742-0.0392 0.0577-0.0005 0.0652 0.16797-0.008z"/>
   <ellipse id="path3342" style="color-rendering:auto;color:#000000;isolation:auto;mix-blend-mode:normal;shape-rendering:auto;solid-color:#000000;image-rendering:auto" rx="72.857" ry="78.571" cy="208.08" cx="498.57"/>
   <path id="path3381" style="color-rendering:auto;color:#000000;isolation:auto;mix-blend-mode:normal;shape-rendering:auto;solid-color:#000000;image-rendering:auto" d="m415.86 358.63c-1.5934 0.97951-3.1861 1.9601-4.5698 3.2256-1.1566 1.0296-1.9772 2.2706-2.67 3.6395-0.70537 1.4144-1.3912 2.8243-2.2137 4.1749-1.0704 1.9144-2.1437 3.8266-3.2478 5.722-0.94928 1.943-1.9556 3.8357-3.0743 5.6887-1.226 2.1043-2.2044 4.3331-3.4621 6.4196-1.052 1.7489-2.0637 3.5006-2.9621 5.334-1.0848 2.1128-2.2693 4.1704-3.4256 6.244-1.2556 2.3141-2.2441 4.7582-3.387 7.1252-0.8989 1.7503-1.7902 3.5274-2.3544 5.4175-0.47534 1.3558-0.81116 2.7392-1.1092 4.1417-0.38918 1.3418-0.60092 2.7155-0.71676 4.1046-0.0927 1.414-0.0914 2.8319-0.094 4.2482-0.12059 1.286 0.17159 2.518 0.40016 3.7702 0.41951 1.0632 0.6067 2.1908 0.91932 3.2829 0.29702 1.0702 0.74161 2.0869 1.1766 3.1071 0.4866 1.1268 1.0812 2.2349 1.7807 3.2456 0.80862 0.96552 1.3351 2.0948 2.0125 3.1485 0.62704 1.0327 1.3412 2.0383 2.2022 2.8903 0.9102 0.9175 2.0013 1.6157 2.95 2.4876 0.95708 0.76538 1.9683 1.4478 2.9606 2.1667 1.0589 0.725 2.1856 1.373 3.214 2.1423 1.0237 0.52623 1.9441 1.1954 2.8932 1.839 1.1023 0.47628 2.1868 0.98432 3.2757 1.4949 1.0209 0.49267 1.9804 0.94278 3.1118 1.1283 1.1198 0.17512 2.1465-0.29849 3.1403-0.73531-2.8978 1.6434-5.7923 3.2925-8.6933 4.9301-0.1504 0.0849 0.29136-0.18574 0.44108-0.27183 3.1883-1.8332 6.3712-3.6759 9.5727-5.486 2.8976-1.6383-5.7687 3.323-8.661 4.9706-0.15254 0.0869 0.28842-0.20103 0.44079-0.28821 3.1938-1.8274 6.398-3.6366 9.597-5.4549-22.834 13.112 0.58317-0.38199 0.88652-0.55318 0.16146-0.0911 0.36112-0.0956 0.52635-0.1797 0.50507-0.25706 0.87156-0.53203 1.4262-0.71743 0.9624-0.63922 2.0852-1.0764 3.1978-1.3917 0.71475-0.5438 1.5673-0.62278 2.3934-0.84658 0.43644-0.11824 0.84802-0.31495 1.2782-0.4541 1.2331-0.27959 2.4626-0.63643 3.6185-1.1583 1.2011-0.41292 2.4003-0.84777 3.5488-1.3972 1.238-0.3839 2.3407-1.0105 3.6127-1.2936 0.46444-0.36276 1.0757-0.40253 1.5921-0.62974 0.5149-0.22652 0.92479-0.50976 1.4749-0.68679 0.3894-0.41548 0.95825-0.47101 1.434-0.70951 0.50424-0.2528 0.87405-0.53002 1.4259-0.71495 0.93329-0.68971 2.0973-0.90087 3.0524-1.5559 0.98875-0.58379 2.1348-0.93089 3.0702-1.592 0.93043-0.5195 2.0039-0.8258 2.8728-1.4425 0.15831-0.0788 0.62792-0.32492 0.47492-0.23629-2.8837 1.6705-5.7697 3.3373-8.668 4.9824-0.14999 0.0851 0.27182-0.21417 0.42079-0.30108 3.1762-1.8529 6.4016-3.6216 9.5525-5.517 2.8533-1.7164-5.7672 3.3299-8.6595 4.9798-0.15197 0.0867 0.29182-0.19313 0.43772-0.28969 0.91524-0.46552 1.5618-1.1878 2.1962-1.9656 0.63861-0.79842 1.203-1.642 1.7174-2.526 0.38107-0.93977 1.0696-1.7014 1.5264-2.5955 7.0017-17.658 9.9774-6.1855 10.044-2.4144 0.001 1.4145-0.0178 2.8289-0.0271 4.2433 0.0503 1.3043-0.2416 2.584-0.53077 3.847-0.3748 1.1838-0.82033 2.3424-1.2409 3.5103-0.48217 1.069-0.83371 2.1866-1.251 3.2814-0.43671 1.0943-0.95429 2.1543-1.3747 3.2568-0.41003 1.1078-0.90706 2.1788-1.4071 3.2477-0.38786 1.04-0.74324 2.0983-1.2268 3.0989-0.53831 1.1009-0.91592 2.2692-1.4135 3.3866-0.43682 1.0582-0.94364 2.0724-1.3116 3.1578-0.47332 1.126-0.89742 2.2714-1.3106 3.4205-0.51316 1.1743-0.97585 2.369-1.4195 3.5709-0.52103 1.1733-0.98509 2.37-1.4298 3.5738-0.48705 1.0693-0.83606 2.1904-1.2523 3.2878-0.43478 1.0945-0.95184 2.1542-1.3718 3.2562-0.50145 1.0945-0.84197 2.25-1.288 3.3653-0.41023 1.0808-0.62711 2.2162-0.96703 3.3207-0.21909 1.1553-0.5676 2.2752-0.85622 3.4133-0.42178 1.3122-0.69794 2.6531-0.97164 4.0013-0.38427 1.3761-0.60578 2.7806-0.72605 4.2016-0.0211 1.4602-0.13866 2.8958-0.38203 4.3351-0.25416 1.3937-0.34188 2.8076-0.39305 4.2208-0.0493 1.3898 0.0411 2.7796-0.18334 4.1561-0.28845 1.2349-0.42412 2.4916-0.50029 3.7549 0.051 1.3133-0.19991 2.5815-0.44657 3.8611-0.23771 1.3013-0.28098 2.6257-0.31355 3.9447-0.0242 1.4213-0.0196 2.8429-0.0183 4.2643 0.12565 1.1687-0.18628 2.413 0.0514 3.5688-1.0751-3.8478 4.7506-3.4048-9.0693 4.367-0.0984 0.0553 0.19901-0.11496 0.27337-0.19989 0.2058-0.23506 0.34035-0.52427 0.52237-0.7782 0.59787-0.85104 1.165-1.7184 1.682-2.6225 0.4238-0.97966 1.1034-1.8063 1.6183-2.733 0.57937-0.87283 0.98706-1.837 1.6047-2.6861 0.59432-0.85476 1.0474-1.7924 1.5724-2.6877 0.56203-0.88197 1.1187-1.7661 1.6731-2.6549 0.64932-0.79975 1.1016-1.7281 1.7363-2.5389 0.53171-0.87532 1.1244-1.706 1.7106-2.5448 0.4867-0.92367 1.1791-1.7086 1.6976-2.6107 0.59027-0.94137 1.2901-1.8026 1.9006-2.7312 0.73814-0.99932 1.4063-2.0462 2.117-3.0648 0.82134-1.0014 1.5801-2.0521 2.3858-3.0656 0.72821-0.95267 1.5548-1.821 2.331-2.7338 0.77234-0.9973 1.577-1.9667 2.3824-2.937 0.70907-0.80805 1.5017-1.5368 2.2094-2.3446 1.2744-1.5397 2.6201-3.0208 3.9166-4.5437 1.0978-1.3907 2.3179-2.6732 3.4748-4.0112 0.98383-1.4451 2.0888-2.7962 3.1879-4.1534 1.2941-1.2227 2.4622-2.4891 3.528-3.916 1.022-1.4308 2.1328-2.7724 3.345-4.0437 1.2426-1.1266 2.0589-2.6096 3.0808-3.9198 1.1878-1.3364 2.1657-2.8322 3.2836-4.2248 1.1619-1.5862 2.2322-3.2389 3.3571-4.8527 0.89569-1.5152 1.8302-3.0073 2.7798-4.4893 1.2228-1.6255 2.1681-3.4306 3.2681-5.1364 1.1432-1.6483 2.1044-3.4152 3.0768-5.1675 0.86871-1.6967 1.4875-3.5023 2.3408-5.2042 1.1087-1.814 2.1066-3.6912 3.2203-5.5018 1.0051-1.7866 1.9239-3.6194 2.9058-5.4183 1.0667-1.7849 1.9444-3.677 3.0234-5.4528 0.68317-1.4782 1.6032-2.7941 2.4978-4.142 0.76299-1.1523 1.449-2.3551 2.217-3.5036 0.67285-1.1099 1.1024-2.3406 1.6627-3.5058 0.51582-1.1263 1.2086-2.1535 1.785-3.2464 0.54512-0.93595 1.0686-1.8901 1.5212-2.875 0.49201-0.94196 0.99206-1.8825 1.429-2.852 0.51034-0.90703 1.055-1.7964 1.6247-2.6677 2.8223-4.5578 2.7867-2.8258 10.984-7.1035 0.90925 1.0477 0.83753 2.4298 0.85305 3.7366-0.0108 1.7236-0.0421 3.447-0.0488 5.1707-0.008 1.9324-0.0115 3.8648-0.0194 5.7971-0.17548 2.3952-0.44836 4.7801-0.59007 7.1784-0.0769 2.5666-0.0669 5.1086-0.50877 7.6432-0.55979 2.5086-0.81008 5.0615-0.95782 7.6223 0.12009 2.465-0.4665 4.8279-0.92695 7.2238-0.48454 2.4079-0.41181 4.8731-0.72179 7.2984-0.56732 2.5563-0.945 5.1368-1.1432 7.7463-0.11929 2.6248-0.79893 5.1792-1.1816 7.7731-0.36464 2.4864-0.30706 5.0034-0.46787 7.504-0.27007 2.1677-0.46967 4.3403-0.56623 6.5226-0.0926 2.3751-0.097 4.7524-0.0923 7.1289 0.00079 2.3508-0.005 4.7017 0.003 7.0525 0.004 2.2385 0.002 4.4771 0.009 6.7156-0.009 2.2465-0.001 4.493-0.004 6.7395 0.004 1.8553 0.0175 3.7106 0.0246 5.5658 0.005 1.4626 0.006 2.9252 0.006 4.3878 0.00023 1.4241 0.00008 2.8481 0.00001 4.2722-0.1207 1.2846 0.16802 2.516 0.39486 3.7674 0.22954 1.3501 0.27408 2.7207 0.30604 4.0868-0.0108 1.4241 0.32423 2.8189 0.50498 4.226 0.16919 1.4405 0.19904 2.8917 0.21901 4.3404 0.0127 1.4306 0.008 2.8613 0.007 4.2919-0.002 1.4284-0.003 2.8568-0.003 4.2852-0.00031 1.4285-0.00029 2.8571-0.00029 4.2856 0.00001 1.4286 0.00002 2.8571 0.00003 4.2857v4.2857c-0.027 1.2287 0.24367 2.4525 0.54143 3.6394 0.26937 1.2612 0.82306 2.4247 1.1767 3.6597 0.50731 1.1153 0.80928 2.2788 0.982 3.4874 0.18221 1.3768 0.0958 2.7691 0.22086 4.1485 0.28752 1.374 0.34769 2.7866 0.61212 4.1618 0.38318 1.185 0.45871 2.4328 0.71453 3.6421 0.3757 1.2143 0.55753 2.4652 0.66361 3.7277 0.11651 1.1136 0.5512 2.1275 0.92937 3.1657 0.26214 1.1553 0.67613 2.266 0.95264 3.4176 0.2442 1.1151 0.51416 2.2444 0.87748 3.3281 0.44471 1.0802 0.60699 2.2359 0.96065 3.3438 0.28019 1.1508 0.56068 2.2917 0.88289 3.4322 0.29289 1.1457 0.72356 2.2344 0.95012 3.3999 0.33444 1.0644 0.582 2.1486 0.96629 3.1962 0.3255 1.0552 0.6211 2.1286 1.0905 3.1317 0.40469 0.876 1.0078 1.67 1.7075 2.3327 0.88432 0.47852 1.7717 0.92326 2.7631 1.1405 1.2805 0.20759 2.5827 0.20662 3.8764 0.21775 1.4257 0.005 2.8515-0.002 4.2772-0.006 1.3127 0.14247 2.5337-0.31444 3.8128-0.51344 1.2384-0.0243 2.3616-0.51381 3.5735-0.71701 1.2539-0.31058 2.4023-0.87518 3.6312-1.251 1.1017-0.56061 2.3198-0.97909 3.3343-1.6891 0.94381-0.54711 2.0404-0.86349 2.9279-1.4948 1.1427-0.46677 2.2462-1.024 3.3881-1.4986-0.99026 0.20848 2.724-1.51 1.7361-0.93317-2.847 1.6626-11.404 6.6206-8.5888 4.905 3.1495-1.9193 6.3876-3.6896 9.5917-5.5162 2.8831-1.6435-5.7523 3.3114-8.6284 4.967 0.86983-0.54269 1.5887-1.2664 2.3537-1.9377 0.72234-0.70194 1.4018-1.4486 2.1405-2.1336 0.71166-0.71559 1.3974-1.4606 2.1393-2.1456 0.77408-0.69751 1.3757-1.5223 1.9543-2.3833 0.66423-0.96095 1.2258-1.9829 1.8362-2.9763 0.54854-0.99112 1.0451-2.0041 1.5156-3.0344 0.4463-1.1424 0.93119-2.26 1.3074-3.4281 0.35058-1.0498 0.86784-2.0313 1.2416-3.0701 0.42867-1.0393 0.72021-2.1289 1.1235-3.1767 0.48111-1.1218 0.60362-2.3311 0.68573-3.5353l0.0747-0.66189 9.5377-4.649c-0.0473 0.18332-0.0946 0.36665-0.14195 0.54998-0.0527 1.2878-0.11437 2.5933-0.52073 3.8276-0.1292 0.33058-0.31395 0.63908-0.426 0.97586-0.23596 0.70925-0.28291 1.4907-0.73861 2.1226-0.26826 1.1217-0.82682 2.0776-1.1996 3.1597-0.27602 0.56102-0.36581 1.1334-0.58897 1.7152-0.0729 0.18993-0.16356 0.37252-0.24534 0.55878-0.093 0.1738-0.20525 0.33859-0.27892 0.52141-0.0852 0.21137-0.13012 0.43679-0.19518 0.65518-0.42197 1.0861-0.93809 2.1144-1.4494 3.1489-0.56453 1.0435-1.2061 2.0302-1.8076 3.0484-0.59248 0.86618-1.0632 1.8598-1.8817 2.523-0.6241 0.79181-1.4249 1.4403-2.1402 2.1434-0.62208 0.7929-1.4202 1.4445-2.1345 2.148-0.64082 0.81048-1.4742 1.4956-2.2856 2.1235-3.1705 1.8696-6.4945 3.5005-9.5114 5.6089-2.7072 1.892 11.5-6.4984 8.579-4.9573-3.2675 1.7238-6.4099 3.6751-9.6188 5.5058-0.56782 0.32395-1.143 0.64194-1.7399 0.90898-1.1196 0.52575-2.2784 0.97405-3.3491 1.5971-1.0025 0.43369-1.9512 0.98715-2.9174 1.4947-1.1463 0.52162-2.2375 1.1644-3.4516 1.5309-1.2108 0.46867-2.4477 0.86226-3.7174 1.1412-1.1896 0.28726-2.3666 0.57426-3.589 0.69329-1.2963 0.25576-2.5781 0.45774-3.9079 0.35694-1.4303 0.003-2.8606 0.0119-4.2908-0.009-1.3576-0.0331-2.7316-0.0654-4.0497-0.42762-1.0931-0.36449-2.1733-0.86842-3.0728-1.5951-0.74333-0.78949-1.44-1.6496-1.8857-2.6455-0.48994-1.027-0.8235-2.1236-1.1337-3.2156-0.40935-1.1062-0.67281-2.2434-1.0458-3.3631-0.19019-1.1449-0.61857-2.1967-0.9094-3.312-0.30638-1.1309-0.63539-2.2428-0.86372-3.3926-0.35731-1.1008-0.53144-2.2369-0.94828-3.3188-0.40327-1.1081-0.66072-2.2921-0.92955-3.4363-0.24193-1.1201-0.68172-2.1776-0.89764-3.3035-0.39771-1.1315-0.88353-2.2222-1.0481-3.4252-0.081-1.2109-0.21877-2.4168-0.59706-3.5767-0.3063-1.2065-0.30951-2.4771-0.7184-3.6665-0.31817-1.3953-0.306-2.8503-0.64376-4.2476-0.20883-1.3696-0.0808-2.7587-0.22955-4.137-0.13506-1.1695-0.40355-2.2885-0.91552-3.3567-0.32343-1.2448-0.8998-2.3994-1.1715-3.6604-0.37268-1.2537-0.639-2.5907-0.66471-3.8967v-4.2857l-0.00003-4.2857c-0.00001-1.4286-0.00004-2.8572 0.00017-4.2858 0.0003-1.4287 0.00078-2.8574 0.003-4.2861 0.002-1.4268 0.006-2.8536-0.00086-4.2804-0.0118-1.4137-0.0261-2.8298-0.16486-4.2379-0.16386-1.4439-0.52044-2.8671-0.55689-4.3189-0.0222-1.3142-0.0475-2.6333-0.24307-3.9356-0.22286-1.31-0.59657-2.5942-0.46566-3.9385-0.00007-1.4241-0.00022-2.8481 0.00001-4.2722 0.00044-1.4647 0.001-2.9294 0.006-4.3941 0.007-1.8637 0.0203-3.7273 0.0247-5.591-0.003-2.2452 0.006-4.4903-0.004-6.7354 0.006-2.2407 0.004-4.4815 0.006-6.7222 0.005-2.3512-0.006-4.7024-0.005-7.0536 0.0106-2.3882 0.004-4.7768 0.0667-7.1644 0.0889-2.1964 0.21776-4.3908 0.54181-6.5675 0.2994-2.5078 0.11447-5.0552 0.47014-7.5628 0.34758-2.5838 1.0434-5.1156 1.2155-7.7132 0.19345-2.6302 0.46553-5.2548 1.0998-7.8218 0.46392-2.4088 0.19985-4.8997 0.70188-7.3144 0.40547-2.3725 1.1616-4.6729 0.9949-7.1099 0.12909-2.5998 0.33844-5.2027 0.89943-7.7505 0.1214-0.58932 0.40986-1.9014 0.46042-2.5019 0.13981-1.6605-0.0717-3.3519 0.10889-5.0133 0.11099-2.378 0.3315-4.7441 0.57982-7.1114-0.006-1.931-0.008-3.8622 0.00071-5.7932 0.0107-1.7132 0.0116-3.4264 0.0181-5.1397-0.003-0.75658 0.0409-1.8777-0.16007-2.4652l8.9686-5.1501c-0.34807 0.20187-0.39366 0.17724-0.62863 0.56839-0.27129 0.4516-0.38794 0.97456-0.86088 1.2903-0.50582 0.91095-1.0975 1.7545-1.6403 2.6344-0.60049 0.87265-0.9131 1.9308-1.4272 2.8568-0.61881 0.89678-0.94261 1.9843-1.5099 2.9182-0.70957 0.97628-1.1731 2.1281-1.8378 3.1396-0.55924 1.2026-1.1339 2.395-1.6132 3.6327-0.7232 1.1771-1.4849 2.3334-2.2536 3.4842-0.26961 0.49897-0.47436 0.93571-0.83662 1.3778-0.15118 0.18448-0.36854 0.31084-0.50665 0.50531-0.48373 0.68117-0.7689 1.5527-1.1635 2.2829-0.32622 0.51249-0.71636 0.98612-1.0026 1.522-0.16404 0.30712-0.24843 0.65163-0.40243 0.96391-0.50195 1.0178-1.2547 1.8925-1.6759 2.9546-1.0689 1.7482-1.8658 3.6477-2.884 5.4256-0.35552 0.61276-0.79342 1.1753-1.1471 1.7892-0.69225 1.2016-1.1902 2.5376-2.0849 3.6229-0.25563 0.53209-0.60027 1.0199-0.83733 1.5605-0.12886 0.29388-0.17277 0.61891-0.28502 0.91953-0.35399 0.94797-0.93554 1.793-1.2197 2.7705-0.94937 1.8009-1.9467 3.5673-3.0328 5.2887-1.2553 1.5996-2.0342 3.495-3.2278 5.1433-0.60913 0.70312-0.95156 1.4589-1.4504 2.2394-0.29988 0.46922-0.68961 0.87912-0.9692 1.3607-0.15544 0.26776-0.25123 0.56596-0.37684 0.84894-1.1014 1.6547-2.2925 3.2347-3.3513 4.9109-0.19533 0.27051-0.39066 0.54101-0.58599 0.81152-0.21654 0.22573-0.45839 0.42966-0.64963 0.67719-0.68907 0.89189-1.1179 2.0118-2.0146 2.7344-0.32865 0.42269-0.72713 0.79069-1.0323 1.2306-0.16349 0.23566-0.24563 0.52037-0.40236 0.76058-0.47424 0.7268-1.0548 1.4092-1.5881 2.0934-1.3556 1.0866-2.4269 2.4865-3.4131 3.9156-0.65999 0.72218-1.0801 1.5385-1.7016 2.2892-1.0404 1.2567-0.0913 0.0657-1.2462 1.072-0.20343 0.17725-0.35987 0.40211-0.5398 0.60316-1.309 1.2283 0.0947-0.17685-1.0559 1.2687-0.73763 0.92668-1.6815 1.7218-2.1581 2.8381-1.1295 1.3958-2.4353 2.5918-3.474 4.0693-1.3928 1.376-2.4939 3.0328-3.9104 4.4017-0.57941 0.96763-1.4152 1.6336-2.1384 2.4807-0.94181 0.82252-1.6797 1.8856-2.424 2.8827-0.77977 0.90421-1.5123 1.829-2.3574 2.6674-0.74618 1.0646-1.6109 2.0373-2.3548 3.1082-0.86916 0.88625-1.4265 2.0105-2.1371 3.0222-0.71307 0.8246-1.237 1.8266-1.9088 2.6778-0.63881 0.79466-1.0344 1.7674-1.7368 2.5263-0.43553 0.97622-1.2468 1.6689-1.6586 2.6573-0.57424 0.86281-1.2773 1.6235-1.7194 2.5769-0.73597 0.73877-1.0228 1.7518-1.7447 2.4987-0.48699 0.94565-1.0372 1.8442-1.5286 2.782-0.56711 0.87997-1.2454 1.6674-1.6117 2.6713-0.63845 0.80481-1.0355 1.7863-1.6867 2.5921-0.21171 0.55366-0.48927 0.91988-0.78029 1.4172-0.26664 0.45568-0.37701 0.98513-0.84459 1.3087-0.14283 0.27414-0.36343 0.50294-0.50535 0.77756-0.0752 0.14554-0.003 0.38388-0.14161 0.47063-2.011 1.2555-7.6031 8.3327-10.166 4.7592-0.37399-1.2199 0.0136-2.5935-0.12636-3.8542-0.002-1.4275-0.006-2.8551 0.006-4.2826 0.0194-1.3639 0.0416-2.7321 0.22756-4.0857 0.20145-1.2537 0.6149-2.4613 0.51514-3.7472 0.0513-1.3033 0.12441-2.6122 0.42118-3.8871 0.31054-1.3267 0.28704-2.6468 0.27662-4.0084 0.0365-1.4548 0.0951-2.9126 0.33001-4.3514 0.23892-1.4138 0.48805-2.8007 0.42538-4.2446 0.0905-1.4678 0.24459-2.9344 0.65224-4.3533 0.35919-1.3146 0.41016-2.7092 0.96065-3.977 0.22174-1.1799 0.69619-2.2713 0.82624-3.4678 0.29534-1.1497 0.69304-2.2529 0.91725-3.4221 0.44458-1.1096 0.74997-2.263 1.327-3.3179 0.33306-1.1235 0.7802-2.2333 1.3589-3.2504 0.34313-1.1496 0.83565-2.2439 1.2208-3.3794 0.59504-1.1318 0.86065-2.4228 1.43-3.5736 0.59305-1.1284 0.85879-2.4149 1.4206-3.5644 0.56084-1.0744 0.80228-2.2993 1.3044-3.4049 0.27544-0.52898 0.3573-1.0705 0.58481-1.619 0.84688-2.0417-0.35283 0.96335 0.52813-0.96277 0.0873-0.19093 0.13276-0.39836 0.19915-0.59754 0.49591-1.1259 0.96142-2.2535 1.3901-3.4087 0.46756-0.99354 0.97494-1.9777 1.2576-3.0438 0.38874-1.1051 0.98429-2.1207 1.4484-3.1958 0.33345-1.1243 0.78109-2.235 1.3612-3.2522 0.3435-1.1455 0.83739-2.2346 1.2205-3.3669 0.56378-1.0698 0.81858-2.2893 1.2787-3.4075 0.46959-1.0866 0.61039-2.4025 0.69491-3.57 0.008-1.4058 0.0228-2.8115 0.0231-4.2172-0.005-0.49647-0.10408-1.8058-0.065-1.8275 8.7255-4.8359 12.886-5.7266 9.1924-4.9182-0.54307 0.83805-0.96759 1.7301-1.5847 2.5231-0.20811 0.54973-0.47777 0.90204-0.76979 1.3921-0.27246 0.45724-0.38854 0.98087-0.87164 1.2946-0.54615 0.92201-1.1716 1.7318-2.0267 2.3815-3.6156 1.9701-1.641 0.88854-9.9717 5.7955-2.8655 1.6879 5.7444-3.3531 8.6219-5.0205 0.14731-0.0854-0.28422 0.18779-0.4309 0.27423-9.0066 5.3073-6.3229 3.8073-9.9594 5.8337-0.98412 0.41943-1.9188 0.95176-2.8662 1.4464-1.0503 0.46614-2.0431 1.0552-3.066 1.5776-1.0579 0.46685-2.0973 0.96429-3.132 1.4749-0.94564 0.49396-1.8954 0.98367-2.8768 1.4009-1.013 0.47449-2.0479 0.90587-3.1198 1.2305-1.1907 0.42409-2.3418 0.95551-3.5269 1.3961-1.1924 0.45597-2.3624 0.96174-3.5742 1.3677-1.2107 0.39458-2.4163 0.78343-3.6479 1.1085-1.2379 0.40446-2.4784 0.77013-3.6652 1.3151-1.0817 0.43581-2.1199 0.95278-3.1638 1.4659-10.605 5.6254 27.897-15.889-2.8132 1.4847 2.8749-1.6642 5.7514-3.3256 8.6248-4.9925 0.14975-0.0869-0.30417 0.16552-0.45391 0.25239-3.1778 1.8433-6.3724 3.658-9.5285 5.5382-2.8551 1.7009 5.7471-3.3392 8.6256-5.0003 0.14968-0.0864-0.29261 0.18393-0.43892 0.2759-3.1901 1.8236-6.3802 3.6471-9.5702 5.4707-1.1331 0.40164-2.3273 0.51691-3.5042 0.22465-1.1479-0.30429-2.1782-0.83875-3.2533-1.3316-1.1241-0.55022-2.2957-1.0014-3.3783-1.636-0.93063-0.67142-1.9256-1.2304-2.884-1.8585-1.0627-0.7246-2.147-1.4189-3.2117-2.1407-1.0312-0.72324-2.064-1.4504-3.0269-2.2632-0.993-0.86028-2.0746-1.6173-3.0019-2.5525-0.86279-0.94335-1.6345-1.9738-2.2866-3.0738-0.67812-1.0425-1.2215-2.1536-2.0079-3.125-0.71691-1.0775-1.3708-2.2193-1.8802-3.4088-0.4761-1.0472-0.92314-2.1101-1.2433-3.2154-0.35854-1.1213-0.48519-2.312-0.97347-3.3991-0.22456-1.3115-0.60113-2.5969-0.47173-3.9433-0.00029-1.4382-0.005-2.8773 0.0599-4.3144 0.0857-1.4381 0.22797-2.877 0.6347-4.2656 0.39398-1.3859 0.48246-2.8592 1.1314-4.1765 0.48084-1.9949 1.3735-3.8304 2.2933-5.6569 1.3465-2.2575 2.117-4.8397 3.4119-7.1368 1.0784-2.0815 2.3079-4.0863 3.3795-6.17 0.42117-0.89689 0.83868-1.8185 1.2917-2.6975 0.91174-1.769 0.1428-0.0575 1.1545-1.7289 0.19802-0.32715 0.33992-0.68514 0.50988-1.0277 0.42791-0.67577 0.91273-1.3179 1.291-2.0227 0.76709-1.4294 1.2977-2.992 2.1791-4.363 0.66793-1.225 1.5469-2.3544 2.1412-3.6189 0.16451-0.35002 0.25113-0.73258 0.40723-1.0864 0.15275-0.34628 0.34519-0.67365 0.51778-1.0105 1.1735-1.8386 2.1875-3.7686 3.2082-5.6926 0.38201-0.6555 0.92775-1.315 1.2605-1.9891 0.33798-0.6848 0.4526-1.4938 0.99302-2.0882 0.63056-1.4574 1.3096-2.8977 2.5315-3.9601 1.234-1.4355 2.8158-2.4869 4.449-3.4221l9.8809-3.8661z"/>
  </g>
 </g>
</svg>
