<?xml version="1.0" encoding="UTF-8" standalone="no"?>
<!-- Created with Inkscape (http://www.inkscape.org/) -->

<svg
   xmlns:dc="http://purl.org/dc/elements/1.1/"
   xmlns:cc="http://creativecommons.org/ns#"
   xmlns:rdf="http://www.w3.org/1999/02/22-rdf-syntax-ns#"
   xmlns:svg="http://www.w3.org/2000/svg"
   xmlns="http://www.w3.org/2000/svg"
   xmlns:sodipodi="http://sodipodi.sourceforge.net/DTD/sodipodi-0.dtd"
   xmlns:inkscape="http://www.inkscape.org/namespaces/inkscape"
   width="210mm"
   height="297mm"
   viewBox="0 0 744.09448819 1052.3622047"
   id="svg2"
   version="1.1"
   inkscape:version="0.91 r13725"
   sodipodi:docname="RectEllipCallig.svg">
  <defs
     id="defs4" />
  <sodipodi:namedview
     id="base"
     pagecolor="#ffffff"
     bordercolor="#666666"
     borderopacity="1.0"
     inkscape:pageopacity="0.0"
     inkscape:pageshadow="2"
     inkscape:zoom="1.4"
     inkscape:cx="302.84804"
     inkscape:cy="647.74196"
     inkscape:document-units="px"
     inkscape:current-layer="layer1"
     showgrid="false"
     inkscape:window-width="1920"
     inkscape:window-height="1021"
     inkscape:window-x="0"
     inkscape:window-y="0"
     inkscape:window-maximized="1" />
  <metadata
     id="metadata7">
    <rdf:RDF>
      <cc:Work
         rdf:about="">
        <dc:format>image/svg+xml</dc:format>
        <dc:type
           rdf:resource="http://purl.org/dc/dcmitype/StillImage" />
        <dc:title></dc:title>
      </cc:Work>
    </rdf:RDF>
  </metadata>
  <g
     inkscape:label="Layer 1"
     inkscape:groupmode="layer"
     id="layer1">
    <rect
       style="color:#000000;clip-rule:nonzero;display:inline;overflow:visible;visibility:visible;opacity:1;isolation:auto;mix-blend-mode:normal;color-interpolation:sRGB;color-interpolation-filters:linearRGB;solid-color:#000000;solid-opacity:1;fill:#000000;fill-opacity:1;fill-rule:nonzero;stroke-width:1;stroke-linecap:butt;stroke-linejoin:miter;stroke-miterlimit:4;stroke-dasharray:none;stroke-dashoffset:0;stroke-opacity:1;color-rendering:auto;image-rendering:auto;shape-rendering:auto;text-rendering:auto;enable-background:accumulate"
       id="rect3336"
       width="208.57143"
       height="174.28572"
       x="77.14286"
       y="120.93363" />
    <path
       style="color:#000000;clip-rule:nonzero;display:inline;overflow:visible;visibility:visible;opacity:1;isolation:auto;mix-blend-mode:normal;color-interpolation:sRGB;color-interpolation-filters:linearRGB;solid-color:#000000;solid-opacity:1;fill:#000000;fill-opacity:1;fill-rule:nonzero;stroke-width:1;stroke-linecap:butt;stroke-linejoin:miter;stroke-miterlimit:4;stroke-dasharray:none;stroke-dashoffset:0;stroke-opacity:1;color-rendering:auto;image-rendering:auto;shape-rendering:auto;text-rendering:auto;enable-background:accumulate"
       d="M 105.39062 432.25586 L 68.771484 453.71289 C 73.33123 460.15899 77.865785 466.61605 82.537109 472.98438 C 85.665243 477.43955 88.875725 481.81387 92.207031 486.11914 C 95.129605 489.39316 97.948822 492.7698 101.45312 495.43555 C 106.08755 498.18189 111.21137 499.79244 116.45898 500.85547 C 122.16078 501.82101 127.95739 501.90432 133.72461 501.97852 C 139.34561 502.01648 144.96685 501.98956 150.58789 501.97656 C 150.61356 501.84264 150.63492 501.70776 150.67188 501.57617 C 150.88281 500.82514 151.30111 500.14763 151.61523 499.43359 C 152.19415 498.62478 152.64064 497.72522 153.23242 496.92578 C 153.31182 496.81859 153.51927 496.85569 153.58594 496.74023 C 153.93158 496.14143 154.11442 495.45901 154.43359 494.8457 C 155.95913 491.91429 154.0328 496.75868 155.77344 491.94141 C 156.99754 489.9438 155.0105 493.29914 157.03516 488.8457 C 157.19852 488.48636 157.35141 487.76815 157.72852 487.88477 C 157.73127 487.88562 157.73173 487.88963 157.73438 487.89062 C 157.82422 487.03245 157.83007 486.93988 158.49609 485.04688 L 159.59961 483.20117 C 159.80471 483.01147 160.04761 482.85662 160.21484 482.63281 C 160.66664 482.02812 160.98723 481.33041 161.44531 480.73047 C 161.63279 480.48494 162.46997 479.91188 162.59961 479.48633 C 162.8228 478.75371 162.90701 477.9847 163.06055 477.23438 L 163.13477 477.07422 C 159.1385 477.03901 155.14264 476.93246 151.16602 476.51953 C 146.29797 475.8624 141.71798 474.62387 137.26562 472.5332 C 133.77701 470.5531 131.54739 467.14079 128.69922 464.39258 C 125.38565 460.10067 121.99674 455.88005 118.92383 451.40234 C 114.19837 445.1683 109.42316 438.98108 105.39062 432.25586 z M 267.0625 460.16211 C 263.24183 460.08209 259.38605 460.79562 255.66602 461.625 C 254.20254 462.07122 252.80577 462.75516 251.30859 463.07031 C 248.13238 463.73887 244.69458 463.36478 241.62891 464.68945 C 240.25989 465.21515 238.99222 466.00002 237.59375 466.44141 C 234.67024 467.36414 231.39606 467.35171 228.66797 468.98242 C 223.77183 469.54987 219.19145 471.07953 214.39258 471.84961 C 209.49703 472.42439 204.92074 473.97374 200.11914 474.72852 C 195.07546 475.29512 190.22858 476.88646 185.19336 477.0625 C 180.84551 477.07071 176.49679 477.08127 172.14844 477.08984 C 171.40452 477.78699 171.21382 477.91321 170.7832 477.93555 C 170.55897 478.45147 170.10141 478.93026 169.86523 479.44727 C 169.76139 479.67457 169.67762 479.91089 169.58398 480.14258 C 170.0191 481.94698 167.79836 484.07884 166.9375 485.29883 C 166.6848 485.65696 166.53113 486.08094 166.26562 486.42969 C 164.7774 488.38455 164.81678 487.30842 164.83789 488.33594 C 164.37737 488.70608 164.8761 489.2243 164.71289 489.62305 C 164.32561 490.56907 163.80118 491.45304 163.30664 492.34766 C 163.17769 492.58092 162.9195 492.74389 162.8457 493 C 162.8132 493.11269 163.05651 492.89867 163.16211 492.84766 L 162.2207 495.01758 C 161.42342 497.42179 162.26641 495.13028 160.59766 498.45508 C 160.41754 498.81394 160.35578 499.22884 160.14453 499.57031 C 159.72428 500.24962 159.16845 500.8379 158.71875 501.49805 C 161.19738 501.09928 163.66089 500.55886 166.14062 500.14258 C 171.02948 499.81849 175.66775 498.23811 180.44922 497.31445 C 185.31867 496.91677 189.94626 495.35788 194.7207 494.44336 C 199.21687 493.42963 203.8085 492.39566 208.16406 490.85742 C 212.55434 488.87488 217.39671 488.6663 222 487.50781 C 226.64871 486.08538 231.45025 485.31212 236.30469 485.18555 C 240.4931 485.35125 243.75749 487.16736 246.43164 490.29492 C 249.72711 493.52611 251.2574 497.8053 253.10352 501.92188 C 254.8663 505.98789 256.69632 509.83745 257.52734 514.22461 C 257.82755 514.97262 258.09524 515.72732 258.34961 516.48438 C 258.5563 516.6168 258.76191 516.75422 258.92969 516.89258 C 259.11342 516.95827 259.29704 517.02654 259.48242 517.08594 C 259.23667 517.06819 259.16966 517.06283 259.11914 517.06055 C 259.12248 517.06402 259.12369 517.06686 259.12695 517.07031 C 259.30794 517.10152 260.21502 517.22808 261.14258 517.50977 C 263.11189 518.10781 261.89311 517.95719 263.45117 518.58789 C 264.32873 518.94313 265.29762 519.08953 266.12109 519.55664 C 266.3777 519.7022 266.59557 519.90071 266.80273 520.11328 C 266.8959 520.14358 267.03629 520.1853 267.10742 520.20703 C 267.7159 520.39296 268.24264 520.77954 268.81055 521.06641 C 268.74515 521.07911 268.55591 521.07547 268.61523 521.10547 C 269.13651 521.37158 269.71935 521.50589 270.23047 521.79102 C 270.31047 521.83562 270.28635 521.96552 270.31445 522.05273 C 271.28435 522.34839 273.88509 522.76274 274.53906 524.11133 C 274.80156 524.223 275.06438 524.33583 275.30859 524.48242 C 276.09035 524.9517 276.50048 525.23461 276.73047 525.42578 C 276.85775 525.47436 277.02335 525.53466 277.35547 525.63086 C 278.9197 526.08394 280.28404 526.12124 281.53516 527.26367 C 281.6834 527.39903 281.1342 527.27796 280.93359 527.28516 C 282.86193 527.8076 283.41186 527.9731 285.33789 529.10547 C 285.57448 529.24457 286.16834 529.60416 285.91016 529.69727 C 285.80913 529.7337 285.65785 529.72524 285.49219 529.69727 C 285.72059 529.76425 285.94582 529.8399 286.17578 529.90234 C 287.06921 529.75027 290.41236 531.58559 290.89844 531.85352 C 291.01221 531.94812 291.1187 532.04963 291.23828 532.13672 C 291.50173 532.3286 292.23567 532.462 292.10742 532.68359 C 292.13377 532.69257 292.15928 532.70369 292.18555 532.71289 C 293.82367 529.53925 295.24798 526.26852 296.42578 522.875 C 298.17018 518.18677 298.96858 513.20121 298.29883 508.20898 C 297.68849 503.40346 296.61217 498.7388 294.94727 494.18164 C 293.90844 489.54707 291.99679 485.36986 290.0957 481.04688 C 288.08185 476.6329 286.38493 471.97859 282.86328 468.49219 C 279.78099 464.52433 275.9614 461.38131 270.86523 460.53125 C 269.60586 460.30289 268.33606 460.18878 267.0625 460.16211 z M 170.02148 478.0332 C 169.59276 478.10737 169.03118 478.22576 168.15039 478.48047 C 167.649 478.62546 169.22903 478.5069 169.70508 478.29297 C 169.80558 478.24779 169.91385 478.14927 170.02148 478.0332 z M 261.65039 524.91406 C 261.45724 525.02081 262.09221 525.6103 261.87305 525.55469 C 261.10873 525.36072 260.65649 525.21276 260.35742 525.08789 C 260.49498 526.02165 260.6268 526.95735 260.72461 527.90234 C 261.2874 532.44839 259.61112 536.64315 257.86133 540.71094 C 256.34516 545.1373 254.45059 549.61624 251.29492 553.12109 C 248.74029 556.36589 246.01701 559.76235 242.73438 562.31445 C 240.22725 565.63569 236.16449 566.88905 233.24219 569.79883 C 229.68759 571.31282 226.06501 572.60657 222.4043 573.88867 C 217.19643 575.8048 211.69764 576.43496 206.20117 576.81641 C 200.50522 577.11188 194.79745 577.08794 189.0957 577.08594 L 154.8125 601.98828 C 160.5574 602.00118 166.30304 602.03461 172.04688 601.90039 C 177.70878 601.70367 183.41457 601.42351 188.90625 599.90625 C 193.31085 598.52372 197.97286 597.50416 201.87891 594.97461 C 204.12198 594.33599 205.91755 593.2604 208.04883 592.45312 C 208.79971 592.16872 209.68794 592.27949 210.39258 591.89453 C 213.96706 589.94172 215.80524 588.9408 218.51367 587.46484 C 337.16397 518.9492 135.31216 635.52688 262.85156 561.4707 C 266.18477 559.04898 269.50646 556.67845 272.62305 553.96484 C 276.07882 551.70942 279.30321 549.25763 282.06055 546.16602 C 284.23288 543.72809 286.51294 541.37951 288.49023 538.7832 C 287.8052 538.39991 287.34089 538.11963 286.51172 537.49219 C 286.52272 537.53669 286.58692 537.64339 286.54492 537.625 C 286.16146 537.45728 285.82151 537.20281 285.44336 537.02344 C 285.37026 536.98874 285.24156 536.91716 285.20312 536.98828 C 285.18482 537.02218 285.24746 537.06513 285.30664 537.0957 C 283.86165 536.48513 283.67433 536.46587 283.35938 536.26367 C 283.48935 536.35271 283.7819 536.54617 283.67188 536.48242 C 282.73133 535.9375 281.78359 535.39915 280.89062 534.7793 C 280.85485 534.75446 280.82614 534.7201 280.79492 534.68945 C 280.78919 534.7015 280.78714 534.71544 280.76367 534.71875 C 279.25317 534.93208 279.70537 533.68475 279.50781 534.28516 C 278.27588 534.53079 277.58132 532.76942 276.42188 532.55469 C 276.28503 532.52929 276.15195 532.6745 276.01562 532.64648 C 275.53062 532.54668 275.07455 532.33831 274.60547 532.17969 C 274.46274 532.1314 274.32515 532.00692 274.17969 532.01562 L 274.49023 532.20508 C 274.3751 532.14161 274.01619 532.04414 274.14453 532.01562 C 274.15645 532.01297 274.1679 532.01634 274.17969 532.01562 L 271.28906 530.26367 C 270.83586 529.84742 271.17631 530.48211 271.11328 530.43164 C 270.32571 529.80103 269.62724 529.06236 268.83203 528.44141 C 268.45028 528.14331 268.94235 528.7923 269.16406 529.10352 C 268.28707 528.18282 266.91199 528.30396 265.88477 527.70703 C 265.32236 527.3802 264.83957 526.92879 264.2832 526.5918 C 264.23574 526.56305 264.27515 526.61933 264.33008 526.6875 C 264.52366 526.81741 264.72189 526.94025 264.91406 527.07227 C 265.05697 527.17045 264.6058 526.91629 264.45117 526.83789 C 264.4266 526.80194 264.37316 526.74097 264.33008 526.6875 C 263.44059 526.09056 262.54389 525.50506 261.65039 524.91406 z M 218.51367 587.46484 C 217.02681 588.32345 217.96068 587.78521 216.37109 588.70312 C 214.65515 589.69403 218.84118 587.28674 218.95117 587.22656 C 218.80756 587.30482 218.65953 587.38536 218.51367 587.46484 z M 218.95117 587.22656 C 238.37157 576.64422 238.6356 576.54663 250.80859 568.94141 C 241.04809 574.54207 219.57583 586.8848 218.95117 587.22656 z M 280.17383 534.07227 C 280.18888 534.09847 280.35641 534.22419 280.51758 534.35938 C 280.43029 534.24606 280.33748 534.13953 280.21094 534.08008 C 280.17909 534.06512 280.16907 534.06398 280.17383 534.07227 z M 256.75195 557.47461 C 256.86064 557.4324 256.48568 557.68997 255.50781 558.32031 C 252.5894 560.20152 249.63406 562.02257 246.6582 563.81055 C 243.49189 565.63855 237.49878 569.10757 232.11719 572.2207 C 232.63897 571.90929 233.17189 571.58892 233.70898 571.26758 C 236.83396 569.45738 240.13887 567.535 243.65234 565.47461 C 244.08229 565.22248 243.38125 565.5581 242.63086 565.91211 C 249.71676 561.64271 256.37833 557.61973 256.75195 557.47461 z M 220.86328 578.72852 C 215.99875 581.54484 217.2939 580.78823 211.21289 584.31055 C 201.66515 589.39091 207.23262 586.40308 220.69531 578.73633 C 220.65608 578.79403 220.69481 578.80157 220.86328 578.72852 z "
       id="path3340" />
    <ellipse
       style="color:#000000;clip-rule:nonzero;display:inline;overflow:visible;visibility:visible;opacity:1;isolation:auto;mix-blend-mode:normal;color-interpolation:sRGB;color-interpolation-filters:linearRGB;solid-color:#000000;solid-opacity:1;fill:#000000;fill-opacity:1;fill-rule:nonzero;stroke-width:1;stroke-linecap:butt;stroke-linejoin:miter;stroke-miterlimit:4;stroke-dasharray:none;stroke-dashoffset:0;stroke-opacity:1;color-rendering:auto;image-rendering:auto;shape-rendering:auto;text-rendering:auto;enable-background:accumulate"
       id="path3342"
       cx="498.57144"
       cy="208.07649"
       rx="72.85714"
       ry="78.571426" />
    <path
       style="color:#000000;clip-rule:nonzero;display:inline;overflow:visible;visibility:visible;opacity:1;isolation:auto;mix-blend-mode:normal;color-interpolation:sRGB;color-interpolation-filters:linearRGB;solid-color:#000000;solid-opacity:1;fill:#000000;fill-opacity:1;fill-rule:nonzero;stroke-width:1;stroke-linecap:butt;stroke-linejoin:miter;stroke-miterlimit:4;stroke-dasharray:none;stroke-dashoffset:0;stroke-opacity:1;color-rendering:auto;image-rendering:auto;shape-rendering:auto;text-rendering:auto;enable-background:accumulate"
       id="path3381"
       d="m 415.8564,358.62804 c -1.59337,0.97951 -3.18608,1.96011 -4.56978,3.2256 -1.15657,1.02961 -1.97723,2.27059 -2.67005,3.63953 -0.70537,1.41442 -1.39116,2.82428 -2.21367,4.1749 -1.07038,1.91445 -2.14374,3.82663 -3.24783,5.72199 -0.94928,1.94299 -1.95563,3.83574 -3.07431,5.6887 -1.22599,2.10429 -2.2044,4.33308 -3.46206,6.41964 -1.05199,1.74887 -2.06372,3.50058 -2.96212,5.33403 -1.0848,2.11285 -2.26934,4.17042 -3.42555,6.24397 -1.25565,2.3141 -2.24406,4.75819 -3.38702,7.12523 -0.8989,1.75032 -1.79015,3.52742 -2.35435,5.41747 -0.47534,1.35585 -0.81116,2.73918 -1.1092,4.14168 -0.38918,1.34175 -0.60092,2.71549 -0.71676,4.10457 -0.0927,1.414 -0.0914,2.83187 -0.094,4.24823 -0.12059,1.28602 0.17159,2.51802 0.40016,3.77019 0.41951,1.06323 0.6067,2.19081 0.91932,3.28292 0.29702,1.07021 0.74161,2.0869 1.17658,3.1071 0.4866,1.12676 1.08115,2.23486 1.78067,3.24562 0.80862,0.96552 1.33514,2.09481 2.01254,3.14848 0.62704,1.03272 1.34117,2.03833 2.2022,2.89028 0.9102,0.9175 2.00131,1.61567 2.94995,2.48762 0.95708,0.76538 1.96832,1.44779 2.96062,2.16672 1.05888,0.725 2.18557,1.37303 3.21398,2.14231 1.02366,0.52623 1.94407,1.19538 2.89325,1.83899 1.10234,0.47628 2.18683,0.98432 3.27572,1.49494 1.02086,0.49267 1.9804,0.94278 3.11175,1.12831 1.11985,0.17512 2.14646,-0.29849 3.14027,-0.73531 -2.89777,1.64337 -5.79227,3.29252 -8.6933,4.93012 -0.1504,0.0849 0.29136,-0.18574 0.44108,-0.27183 3.18829,-1.83325 6.37125,-3.67593 9.57273,-5.48604 2.89759,-1.6383 -5.7687,3.32305 -8.66105,4.97058 -0.15254,0.0869 0.28842,-0.20103 0.44079,-0.28821 3.19383,-1.82736 6.39798,-3.63662 9.59696,-5.45494 -22.83397,13.11212 0.58317,-0.38199 0.88652,-0.55318 0.16146,-0.0911 0.36112,-0.0956 0.52635,-0.1797 0.50507,-0.25706 0.87156,-0.53203 1.42623,-0.71743 0.9624,-0.63922 2.08518,-1.07643 3.19779,-1.39171 0.71475,-0.5438 1.56726,-0.62278 2.39335,-0.84658 0.43644,-0.11824 0.84802,-0.31495 1.27824,-0.4541 1.23308,-0.27959 2.46262,-0.63643 3.61848,-1.15832 1.20112,-0.41292 2.40027,-0.84777 3.54879,-1.39717 1.23801,-0.3839 2.3407,-1.01046 3.61274,-1.29359 0.46444,-0.36276 1.07569,-0.40253 1.59213,-0.62974 0.5149,-0.22652 0.92479,-0.50976 1.47494,-0.68679 0.3894,-0.41548 0.95825,-0.47101 1.43399,-0.70951 0.50424,-0.2528 0.87405,-0.53002 1.4259,-0.71495 0.93329,-0.68971 2.09733,-0.90087 3.05238,-1.55594 0.98875,-0.58379 2.13483,-0.93089 3.0702,-1.592 0.93043,-0.5195 2.00393,-0.8258 2.87281,-1.44247 0.15831,-0.0788 0.62792,-0.32492 0.47492,-0.23629 -2.88372,1.67051 -5.76969,3.33727 -8.66796,4.98241 -0.14999,0.0851 0.27182,-0.21417 0.42079,-0.30108 3.17615,-1.85286 6.40163,-3.6216 9.55254,-5.51704 2.85328,-1.7164 -5.76722,3.32992 -8.65947,4.97981 -0.15197,0.0867 0.29182,-0.19313 0.43772,-0.28969 0.91524,-0.46552 1.5618,-1.18778 2.19618,-1.96564 0.63861,-0.79842 1.203,-1.64202 1.71735,-2.52603 0.38107,-0.93977 1.06957,-1.70141 1.52639,-2.59548 7.00171,-17.65798 9.97745,-6.18547 10.0442,-2.41436 10e-4,1.41448 -0.0178,2.82889 -0.0271,4.24333 0.0503,1.30432 -0.2416,2.58397 -0.53077,3.84705 -0.3748,1.18385 -0.82033,2.34245 -1.24086,3.51032 -0.48217,1.069 -0.83371,2.18662 -1.25099,3.28141 -0.43671,1.09429 -0.95429,2.15432 -1.37466,3.25675 -0.41003,1.10776 -0.90706,2.17885 -1.40708,3.24766 -0.38786,1.03998 -0.74324,2.09833 -1.22676,3.09891 -0.53831,1.10086 -0.91592,2.26916 -1.41349,3.38658 -0.43682,1.05819 -0.94364,2.07245 -1.3116,3.15782 -0.47332,1.12601 -0.89742,2.2714 -1.31064,3.4205 -0.51316,1.17433 -0.97585,2.36902 -1.4195,3.57091 -0.52103,1.17331 -0.98509,2.36997 -1.42983,3.57377 -0.48705,1.06928 -0.83606,2.19037 -1.25234,3.28781 -0.43478,1.09446 -0.95184,2.1542 -1.37179,3.25618 -0.50145,1.09446 -0.84197,2.25001 -1.28797,3.36527 -0.41023,1.08079 -0.62711,2.21624 -0.96703,3.32072 -0.21909,1.15534 -0.5676,2.27515 -0.85622,3.41333 -0.42178,1.31217 -0.69794,2.65313 -0.97164,4.00128 -0.38427,1.37606 -0.60578,2.78058 -0.72605,4.20164 -0.0211,1.46018 -0.13866,2.89583 -0.38203,4.33506 -0.25416,1.39373 -0.34188,2.80755 -0.39305,4.22079 -0.0493,1.3898 0.0411,2.77958 -0.18334,4.15614 -0.28845,1.23492 -0.42412,2.49162 -0.50029,3.75491 0.051,1.31334 -0.19991,2.5815 -0.44657,3.86114 -0.23771,1.3013 -0.28098,2.62566 -0.31355,3.9447 -0.0242,1.42128 -0.0196,2.84286 -0.0183,4.26429 0.12565,1.1687 -0.18628,2.41304 0.0514,3.56884 -1.07508,-3.84782 4.75056,-3.40478 -9.06933,4.36699 -0.0984,0.0553 0.19901,-0.11496 0.27337,-0.19989 0.2058,-0.23506 0.34035,-0.52427 0.52237,-0.7782 0.59787,-0.85104 1.16501,-1.71836 1.68203,-2.62252 0.4238,-0.97966 1.10339,-1.80627 1.6183,-2.73297 0.57937,-0.87283 0.98706,-1.83704 1.60474,-2.68609 0.59432,-0.85476 1.04742,-1.79235 1.57245,-2.68771 0.56203,-0.88197 1.11867,-1.76614 1.67309,-2.65487 0.64932,-0.79975 1.1016,-1.7281 1.73629,-2.53886 0.53171,-0.87532 1.12435,-1.706 1.71063,-2.54484 0.4867,-0.92367 1.17906,-1.70864 1.69758,-2.61067 0.59027,-0.94137 1.29012,-1.80265 1.90064,-2.73115 0.73814,-0.99932 1.40631,-2.0462 2.11701,-3.06478 0.82134,-1.00137 1.58013,-2.0521 2.38579,-3.06556 0.72821,-0.95267 1.55476,-1.82101 2.33105,-2.73376 0.77234,-0.9973 1.577,-1.96669 2.38237,-2.93695 0.70907,-0.80805 1.5017,-1.53676 2.20936,-2.34463 1.27436,-1.53971 2.62014,-3.02079 3.91657,-4.54373 1.09784,-1.3907 2.31793,-2.67319 3.47485,-4.01123 0.98383,-1.44513 2.08882,-2.79616 3.18794,-4.15339 1.29411,-1.22266 2.46216,-2.48912 3.52802,-3.916 1.02199,-1.43075 2.13279,-2.77241 3.34498,-4.04366 1.24265,-1.12661 2.05894,-2.60957 3.0808,-3.91978 1.18777,-1.33641 2.16568,-2.83222 3.28358,-4.22477 1.16193,-1.58617 2.2322,-3.2389 3.35714,-4.85272 0.89569,-1.51522 1.83025,-3.00734 2.77978,-4.48931 1.22279,-1.62548 2.16808,-3.4306 3.26814,-5.1364 1.14325,-1.64834 2.10445,-3.41518 3.07675,-5.16754 0.86871,-1.69671 1.48748,-3.50234 2.34083,-5.20425 1.10868,-1.81404 2.10655,-3.69119 3.2203,-5.50179 1.00508,-1.78659 1.92389,-3.61945 2.90582,-5.41826 1.06669,-1.78489 1.94436,-3.67701 3.02344,-5.45278 0.68317,-1.4782 1.60325,-2.79407 2.49778,-4.14202 0.76299,-1.15233 1.44896,-2.35508 2.21703,-3.50358 0.67285,-1.10993 1.10243,-2.34065 1.66271,-3.50582 0.51582,-1.1263 1.20858,-2.15346 1.78502,-3.24641 0.54512,-0.93595 1.06859,-1.89012 1.52124,-2.87499 0.49201,-0.94196 0.99206,-1.88253 1.42896,-2.85198 0.51034,-0.90703 1.05501,-1.79643 1.62469,-2.66769 2.82226,-4.5578 2.78669,-2.82585 10.98365,-7.10352 0.90925,1.0477 0.83753,2.4298 0.85305,3.73661 -0.0108,1.72363 -0.0421,3.44699 -0.0488,5.17069 -0.008,1.93237 -0.0115,3.86475 -0.0194,5.79712 -0.17548,2.3952 -0.44836,4.78006 -0.59007,7.17838 -0.0769,2.56656 -0.0669,5.10855 -0.50877,7.64323 -0.55979,2.50857 -0.81008,5.06152 -0.95782,7.62233 0.12009,2.46496 -0.4665,4.82791 -0.92695,7.22383 -0.48454,2.40787 -0.41181,4.87314 -0.72179,7.29838 -0.56732,2.55627 -0.945,5.13681 -1.1432,7.7463 -0.11929,2.62481 -0.79893,5.17916 -1.18164,7.77312 -0.36464,2.48641 -0.30706,5.00338 -0.46787,7.50405 -0.27007,2.16773 -0.46967,4.34028 -0.56623,6.52256 -0.0926,2.37507 -0.097,4.75236 -0.0923,7.12886 7.9e-4,2.35083 -0.005,4.70168 0.003,7.05249 0.004,2.23852 0.002,4.47706 0.009,6.71558 -0.009,2.24648 -0.001,4.49297 -0.004,6.73946 0.004,1.85529 0.0175,3.71055 0.0246,5.56584 0.005,1.46259 0.006,2.92518 0.006,4.38778 2.3e-4,1.42406 8e-5,2.84811 1e-5,4.27217 -0.1207,1.28465 0.16802,2.51603 0.39486,3.76738 0.22954,1.35006 0.27408,2.72071 0.30604,4.08679 -0.0108,1.4241 0.32423,2.81889 0.50498,4.22603 0.16919,1.4405 0.19904,2.89173 0.21901,4.34041 0.0127,1.4306 0.008,2.86128 0.007,4.29192 -0.002,1.42841 -0.003,2.85683 -0.003,4.28524 -3.1e-4,1.42853 -2.9e-4,2.85706 -2.9e-4,4.28559 10e-6,1.42857 2e-5,2.85714 3e-5,4.28571 0,1.42857 0,2.85715 0,4.28572 -0.027,1.22873 0.24367,2.45247 0.54143,3.63945 0.26937,1.26115 0.82306,2.42468 1.17671,3.65972 0.50731,1.11532 0.80928,2.27879 0.982,3.48739 0.18221,1.37677 0.0958,2.76912 0.22086,4.14851 0.28752,1.37405 0.34769,2.78665 0.61212,4.16185 0.38318,1.18505 0.45871,2.43284 0.71453,3.64212 0.3757,1.21432 0.55753,2.46515 0.66361,3.7277 0.11651,1.11355 0.5512,2.12751 0.92937,3.16573 0.26214,1.15527 0.67613,2.26602 0.95264,3.41756 0.2442,1.11509 0.51416,2.24441 0.87748,3.32813 0.44471,1.08015 0.60699,2.23591 0.96065,3.34376 0.28019,1.15075 0.56068,2.29168 0.88289,3.4322 0.29289,1.14567 0.72356,2.23443 0.95012,3.39988 0.33444,1.06444 0.582,2.14855 0.96629,3.19616 0.3255,1.05518 0.6211,2.12858 1.09046,3.13167 0.40469,0.876 1.00784,1.67005 1.70753,2.33266 0.88432,0.47852 1.77166,0.92326 2.76307,1.14052 1.28049,0.20759 2.5827,0.20662 3.87638,0.21775 1.42574,0.005 2.85149,-0.002 4.27722,-0.006 1.31269,0.14247 2.53374,-0.31444 3.81285,-0.51344 1.23845,-0.0243 2.36157,-0.51381 3.5735,-0.71701 1.25393,-0.31058 2.40232,-0.87518 3.6312,-1.25101 1.10174,-0.56061 2.31981,-0.97909 3.33429,-1.68913 0.94381,-0.54711 2.0404,-0.86349 2.9279,-1.4948 1.14267,-0.46677 2.24625,-1.02402 3.38813,-1.4986 -0.99026,0.20848 2.72395,-1.51002 1.73611,-0.93317 -2.84702,1.66256 -11.40419,6.62065 -8.58883,4.90501 3.14954,-1.91929 6.38755,-3.68956 9.59173,-5.51616 2.88309,-1.64354 -5.75228,3.31135 -8.62843,4.96702 0.86983,-0.54269 1.58866,-1.26635 2.35369,-1.93768 0.72234,-0.70194 1.40176,-1.44862 2.14053,-2.13356 0.71166,-0.71559 1.39735,-1.46061 2.13934,-2.14557 0.77408,-0.69751 1.37568,-1.52227 1.95434,-2.38333 0.66423,-0.96095 1.22585,-1.98286 1.83621,-2.97634 0.54854,-0.99112 1.04512,-2.0041 1.51564,-3.03445 0.4463,-1.14239 0.93119,-2.26003 1.30738,-3.42809 0.35058,-1.04975 0.86784,-2.03132 1.24156,-3.07006 0.42867,-1.03927 0.72021,-2.12889 1.12353,-3.17669 0.48111,-1.12177 0.60362,-2.33113 0.68573,-3.53526 0.0249,-0.22063 0.0498,-0.44126 0.0747,-0.66189 0,0 9.53773,-4.64904 9.53773,-4.64904 l 0,0 c -0.0473,0.18332 -0.0946,0.36665 -0.14195,0.54998 -0.0527,1.28784 -0.11437,2.59328 -0.52073,3.82764 -0.1292,0.33058 -0.31395,0.63908 -0.426,0.97586 -0.23596,0.70925 -0.28291,1.49066 -0.73861,2.12261 -0.26826,1.1217 -0.82682,2.07765 -1.19962,3.15966 -0.27602,0.56102 -0.36581,1.13337 -0.58897,1.71518 -0.0729,0.18993 -0.16356,0.37252 -0.24534,0.55878 -0.093,0.1738 -0.20525,0.33859 -0.27892,0.52141 -0.0852,0.21137 -0.13012,0.43679 -0.19518,0.65518 -0.42197,1.08611 -0.93809,2.11442 -1.44944,3.14888 -0.56453,1.04348 -1.20613,2.03023 -1.80756,3.04835 -0.59248,0.86618 -1.06321,1.85982 -1.88169,2.523 -0.6241,0.79181 -1.42487,1.44031 -2.14017,2.14338 -0.62208,0.7929 -1.42017,1.44454 -2.13448,2.14798 -0.64082,0.81048 -1.47419,1.49556 -2.28555,2.12348 -3.17048,1.86964 -6.4945,3.50047 -9.51142,5.60894 -2.70715,1.89197 11.50016,-6.49841 8.579,-4.95729 -3.26752,1.72384 -6.4099,3.67513 -9.61876,5.50583 -0.56782,0.32395 -1.14298,0.64194 -1.73994,0.90898 -1.11962,0.52575 -2.27837,0.97405 -3.34908,1.59712 -1.00246,0.43369 -1.95125,0.98715 -2.91738,1.49468 -1.14634,0.52162 -2.23754,1.16441 -3.45156,1.53094 -1.21078,0.46867 -2.44768,0.86226 -3.71745,1.14121 -1.1896,0.28726 -2.36663,0.57426 -3.58898,0.69329 -1.29627,0.25576 -2.57814,0.45774 -3.90793,0.35694 -1.43026,0.003 -2.86065,0.0119 -4.2908,-0.009 -1.35755,-0.0331 -2.73161,-0.0654 -4.04968,-0.42762 -1.09306,-0.36449 -2.17331,-0.86842 -3.07275,-1.59508 -0.74333,-0.78949 -1.44001,-1.64963 -1.88572,-2.64553 -0.48994,-1.02699 -0.8235,-2.12361 -1.13368,-3.21562 -0.40935,-1.10618 -0.67281,-2.24337 -1.04583,-3.36314 -0.19019,-1.14491 -0.61857,-2.19673 -0.9094,-3.31203 -0.30638,-1.13093 -0.63539,-2.24277 -0.86372,-3.39262 -0.35731,-1.10079 -0.53144,-2.23686 -0.94828,-3.31875 -0.40327,-1.10806 -0.66072,-2.29213 -0.92955,-3.43631 -0.24193,-1.12011 -0.68172,-2.17759 -0.89764,-3.30349 -0.39771,-1.13151 -0.88353,-2.22224 -1.04807,-3.42519 -0.081,-1.21086 -0.21877,-2.41677 -0.59706,-3.57674 -0.3063,-1.20653 -0.30951,-2.47713 -0.7184,-3.66649 -0.31817,-1.39527 -0.306,-2.8503 -0.64376,-4.24761 -0.20883,-1.36955 -0.0808,-2.75866 -0.22955,-4.137 -0.13506,-1.16954 -0.40355,-2.2885 -0.91552,-3.35672 -0.32343,-1.24478 -0.8998,-2.39942 -1.17154,-3.66043 -0.37268,-1.25369 -0.639,-2.59074 -0.66471,-3.89673 0,-1.42857 0,-2.85714 0,-4.28571 -1e-5,-1.42857 -2e-5,-2.85715 -3e-5,-4.28572 -10e-6,-1.42861 -4e-5,-2.85721 1.7e-4,-4.28582 3e-4,-1.42871 7.8e-4,-2.85742 0.003,-4.28613 0.002,-1.42679 0.006,-2.85359 -8.6e-4,-4.28036 -0.0118,-1.41368 -0.0261,-2.82975 -0.16486,-4.23792 -0.16386,-1.44391 -0.52044,-2.86713 -0.55689,-4.31886 -0.0222,-1.31425 -0.0475,-2.63328 -0.24307,-3.93563 -0.22286,-1.30999 -0.59657,-2.59416 -0.46566,-3.93854 -7e-5,-1.42406 -2.2e-4,-2.84812 10e-6,-4.27217 4.4e-4,-1.46472 0.001,-2.92943 0.006,-4.39414 0.007,-1.86366 0.0203,-3.72729 0.0247,-5.59096 -0.003,-2.24515 0.006,-4.49029 -0.004,-6.73543 0.006,-2.24074 0.004,-4.4815 0.006,-6.72224 0.005,-2.35118 -0.006,-4.70237 -0.005,-7.05355 0.0106,-2.38815 0.004,-4.77683 0.0667,-7.16436 0.0889,-2.19638 0.21776,-4.39084 0.54181,-6.56754 0.2994,-2.50779 0.11447,-5.0552 0.47014,-7.56278 0.34758,-2.58384 1.04343,-5.11557 1.21548,-7.71324 0.19345,-2.63017 0.46553,-5.25485 1.09982,-7.82184 0.46392,-2.40885 0.19985,-4.89972 0.70188,-7.31444 0.40547,-2.37254 1.16157,-4.67291 0.9949,-7.10989 0.12909,-2.59979 0.33844,-5.20269 0.89943,-7.75047 0.1214,-0.58932 0.40986,-1.90141 0.46042,-2.5019 0.13981,-1.66052 -0.0717,-3.35189 0.10889,-5.01334 0.11099,-2.37798 0.3315,-4.74412 0.57982,-7.11137 -0.006,-1.93105 -0.008,-3.86218 7.1e-4,-5.7932 0.0107,-1.71322 0.0116,-3.42643 0.0181,-5.13966 -0.003,-0.75658 0.0409,-1.8777 -0.16007,-2.46523 2.98953,-1.71669 5.97907,-3.43338 8.96861,-5.15006 -0.34807,0.20187 -0.39366,0.17724 -0.62863,0.56839 -0.27129,0.4516 -0.38794,0.97456 -0.86088,1.29034 -0.50582,0.91095 -1.09749,1.7545 -1.64029,2.63439 -0.60049,0.87265 -0.9131,1.93076 -1.42723,2.85681 -0.61881,0.89678 -0.94261,1.9843 -1.50991,2.91825 -0.70957,0.97628 -1.17306,2.12806 -1.8378,3.13956 -0.55924,1.20261 -1.1339,2.39496 -1.61325,3.63269 -0.7232,1.17707 -1.48494,2.33336 -2.25361,3.48418 -0.26961,0.49897 -0.47436,0.93571 -0.83662,1.37778 -0.15118,0.18448 -0.36854,0.31084 -0.50665,0.50531 -0.48373,0.68117 -0.7689,1.55271 -1.16347,2.28287 -0.32622,0.51249 -0.71636,0.98612 -1.00257,1.52198 -0.16404,0.30712 -0.24843,0.65163 -0.40243,0.96391 -0.50195,1.01782 -1.25467,1.89247 -1.67592,2.95455 -1.06892,1.74825 -1.86585,3.64772 -2.88395,5.42563 -0.35552,0.61276 -0.79342,1.17531 -1.14706,1.78916 -0.69225,1.20159 -1.1902,2.53765 -2.08493,3.62288 -0.25563,0.53209 -0.60027,1.01986 -0.83733,1.56049 -0.12886,0.29388 -0.17277,0.61891 -0.28502,0.91953 -0.35399,0.94797 -0.93554,1.79296 -1.2197,2.77047 -0.94937,1.80086 -1.94673,3.56732 -3.03275,5.2887 -1.25531,1.59962 -2.03421,3.49498 -3.22779,5.14327 -0.60913,0.70312 -0.95156,1.45891 -1.45039,2.23944 -0.29988,0.46922 -0.68961,0.87912 -0.9692,1.36072 -0.15544,0.26776 -0.25123,0.56596 -0.37684,0.84894 -1.10141,1.65474 -2.29249,3.2347 -3.35134,4.9109 -0.19533,0.27051 -0.39066,0.54101 -0.58599,0.81152 -0.21654,0.22573 -0.45839,0.42966 -0.64963,0.67719 -0.68907,0.89189 -1.11787,2.01176 -2.01465,2.73442 -0.32865,0.42269 -0.72713,0.79069 -1.03233,1.23061 -0.16349,0.23566 -0.24563,0.52037 -0.40236,0.76058 -0.47424,0.7268 -1.05482,1.40924 -1.5881,2.09336 -1.35561,1.08663 -2.42687,2.48648 -3.41309,3.91557 -0.65999,0.72218 -1.08013,1.53848 -1.70164,2.2892 -1.04041,1.25671 -0.0913,0.0657 -1.24615,1.07195 -0.20343,0.17725 -0.35987,0.40211 -0.5398,0.60316 -1.30903,1.22831 0.0947,-0.17685 -1.05594,1.2687 -0.73763,0.92668 -1.68147,1.72179 -2.1581,2.83806 -1.12951,1.39576 -2.43533,2.59179 -3.47398,4.06933 -1.39284,1.37605 -2.49387,3.03278 -3.91041,4.40174 -0.57941,0.96763 -1.41521,1.63355 -2.13835,2.48068 -0.94181,0.82252 -1.67974,1.88558 -2.42399,2.8827 -0.77977,0.90421 -1.51229,1.82896 -2.35736,2.66741 -0.74618,1.06457 -1.6109,2.0373 -2.35483,3.1082 -0.86916,0.88625 -1.42647,2.01046 -2.13714,3.0222 -0.71307,0.8246 -1.23705,1.82663 -1.9088,2.67777 -0.63881,0.79466 -1.03444,1.76741 -1.73684,2.52633 -0.43553,0.97622 -1.24675,1.66893 -1.65865,2.65731 -0.57424,0.86281 -1.27731,1.62352 -1.71936,2.57693 -0.73597,0.73877 -1.02278,1.75179 -1.74467,2.49871 -0.48699,0.94565 -1.03719,1.84419 -1.52856,2.78195 -0.56711,0.87997 -1.24536,1.66735 -1.61169,2.6713 -0.63845,0.80481 -1.03549,1.78631 -1.68674,2.59206 -0.21171,0.55366 -0.48927,0.91988 -0.78029,1.41721 -0.26664,0.45568 -0.37701,0.98513 -0.84459,1.3087 -0.14283,0.27414 -0.36343,0.50294 -0.50535,0.77756 -0.0752,0.14554 -0.003,0.38388 -0.14161,0.47063 -2.01104,1.25549 -7.6031,8.33272 -10.16643,4.7592 -0.37399,-1.21994 0.0136,-2.59349 -0.12636,-3.8542 -0.002,-1.42754 -0.006,-2.85512 0.006,-4.28262 0.0194,-1.36389 0.0416,-2.73213 0.22756,-4.08566 0.20145,-1.25367 0.6149,-2.46131 0.51514,-3.74724 0.0513,-1.3033 0.12441,-2.61221 0.42118,-3.88711 0.31054,-1.32669 0.28704,-2.64678 0.27662,-4.00845 0.0365,-1.45477 0.0951,-2.91259 0.33001,-4.35141 0.23892,-1.41382 0.48805,-2.8007 0.42538,-4.2446 0.0905,-1.46781 0.24459,-2.93437 0.65224,-4.35334 0.35919,-1.31462 0.41016,-2.70922 0.96065,-3.97704 0.22174,-1.17989 0.69619,-2.27134 0.82624,-3.46781 0.29534,-1.14967 0.69304,-2.25288 0.91725,-3.42208 0.44458,-1.10959 0.74997,-2.26299 1.32701,-3.31792 0.33306,-1.12354 0.7802,-2.23334 1.35891,-3.25038 0.34313,-1.14964 0.83565,-2.24387 1.22078,-3.37939 0.59504,-1.1318 0.86065,-2.42284 1.43001,-3.57358 0.59305,-1.12844 0.85879,-2.41488 1.42065,-3.56445 0.56084,-1.07442 0.80228,-2.29927 1.30444,-3.40494 0.27544,-0.52898 0.3573,-1.07049 0.58481,-1.619 0.84688,-2.04174 -0.35283,0.96335 0.52813,-0.96277 0.0873,-0.19093 0.13276,-0.39836 0.19915,-0.59754 0.49591,-1.12593 0.96142,-2.25354 1.39008,-3.40868 0.46756,-0.99354 0.97494,-1.97766 1.25759,-3.04375 0.38874,-1.10506 0.98429,-2.12074 1.44842,-3.19582 0.33345,-1.12429 0.78109,-2.235 1.36125,-3.25219 0.3435,-1.14554 0.83739,-2.23461 1.22049,-3.36687 0.56378,-1.06978 0.81858,-2.28928 1.27872,-3.40751 0.46959,-1.08663 0.61039,-2.40249 0.69491,-3.57004 0.008,-1.40575 0.0228,-2.81147 0.0231,-4.21724 -0.005,-0.49647 -0.10408,-1.80584 -0.065,-1.82751 8.72549,-4.83594 12.88557,-5.72658 9.19237,-4.91816 -0.54307,0.83805 -0.96759,1.73011 -1.58474,2.52307 -0.20811,0.54973 -0.47777,0.90204 -0.76979,1.3921 -0.27246,0.45724 -0.38854,0.98087 -0.87164,1.29457 -0.54615,0.92201 -1.17157,1.73185 -2.02672,2.3815 -3.61556,1.97011 -1.64104,0.88854 -9.97169,5.79554 -2.86552,1.68788 5.74435,-3.35309 8.62186,-5.02046 0.14731,-0.0854 -0.28422,0.18779 -0.4309,0.27423 -9.00656,5.30728 -6.32287,3.80727 -9.95936,5.83371 -0.98412,0.41943 -1.91882,0.95176 -2.86616,1.44645 -1.05026,0.46614 -2.04307,1.05519 -3.06604,1.57758 -1.05789,0.46685 -2.09727,0.96429 -3.13199,1.47493 -0.94564,0.49396 -1.89542,0.98367 -2.87676,1.40094 -1.01298,0.47449 -2.04791,0.90587 -3.1198,1.23051 -1.19066,0.42409 -2.34182,0.95551 -3.52693,1.39606 -1.19245,0.45597 -2.36239,0.96174 -3.57417,1.36768 -1.21074,0.39458 -2.41627,0.78343 -3.64786,1.10848 -1.23789,0.40446 -2.47843,0.77013 -3.66523,1.31511 -1.08169,0.43581 -2.11992,0.95278 -3.16381,1.46586 -10.60484,5.62535 27.89749,-15.88947 -2.81319,1.48468 2.87492,-1.66417 5.75142,-3.32561 8.62476,-4.99251 0.14975,-0.0869 -0.30417,0.16552 -0.45391,0.25239 -3.17775,1.84333 -6.37241,3.65799 -9.52851,5.53816 -2.85514,1.70087 5.74711,-3.33916 8.62556,-5.00026 0.14968,-0.0864 -0.29261,0.18393 -0.43892,0.2759 -3.19008,1.82357 -6.38016,3.64714 -9.57024,5.47072 -1.1331,0.40164 -2.32729,0.51691 -3.50415,0.22465 -1.14789,-0.30429 -2.17819,-0.83875 -3.25329,-1.33159 -1.12408,-0.55022 -2.29573,-1.00135 -3.37831,-1.63595 -0.93063,-0.67142 -1.9256,-1.23041 -2.88403,-1.85852 -1.06269,-0.7246 -2.14697,-1.41892 -3.21171,-2.14074 -1.03118,-0.72324 -2.06405,-1.45044 -3.02686,-2.26322 -0.993,-0.86028 -2.07455,-1.61734 -3.00192,-2.55253 -0.86279,-0.94335 -1.63447,-1.97379 -2.28664,-3.07377 -0.67812,-1.04254 -1.22148,-2.15365 -2.0079,-3.12497 -0.71691,-1.0775 -1.37085,-2.2193 -1.88022,-3.40876 -0.4761,-1.04717 -0.92314,-2.11012 -1.24327,-3.21536 -0.35854,-1.12129 -0.48519,-2.31199 -0.97347,-3.39914 -0.22456,-1.31154 -0.60113,-2.59688 -0.47173,-3.94332 -2.9e-4,-1.43824 -0.005,-2.8773 0.0599,-4.31443 0.0857,-1.43808 0.22797,-2.877 0.6347,-4.26562 0.39398,-1.38586 0.48246,-2.85918 1.13144,-4.17654 0.48084,-1.99493 1.37349,-3.83037 2.29329,-5.65687 1.34648,-2.25749 2.11697,-4.8397 3.41193,-7.13682 1.07835,-2.08148 2.30787,-4.08627 3.37948,-6.17003 0.42117,-0.89689 0.83868,-1.81852 1.29171,-2.69749 0.91174,-1.76895 0.1428,-0.0575 1.15452,-1.7289 0.19802,-0.32715 0.33992,-0.68514 0.50988,-1.02771 0.42791,-0.67577 0.91273,-1.31792 1.29095,-2.0227 0.76709,-1.42938 1.29766,-2.99196 2.17909,-4.36303 0.66793,-1.22496 1.54686,-2.35439 2.14121,-3.61893 0.16451,-0.35002 0.25113,-0.73258 0.40723,-1.08643 0.15275,-0.34628 0.34519,-0.67365 0.51778,-1.01048 1.1735,-1.8386 2.18754,-3.76858 3.20821,-5.69261 0.38201,-0.6555 0.92775,-1.31496 1.26046,-1.98906 0.33798,-0.6848 0.4526,-1.49383 0.99302,-2.08818 0.63056,-1.45742 1.30955,-2.89771 2.53151,-3.96014 1.23398,-1.43551 2.81582,-2.48693 4.44897,-3.4221 0,0 9.88094,-3.86614 9.88094,-3.86614 z"
       inkscape:connector-curvature="0" />
  </g>
</svg>
