<?xml version="1.0" encoding="UTF-8" standalone="no"?>
<!-- Created with Inkscape (http://www.inkscape.org/) -->
<svg id="svg2" xmlns:rdf="http://www.w3.org/1999/02/22-rdf-syntax-ns#" xmlns="http://www.w3.org/2000/svg" height="297mm" width="210mm" version="1.1" xmlns:cc="http://creativecommons.org/ns#" xmlns:dc="http://purl.org/dc/elements/1.1/" viewBox="0 0 744.09448819 1052.3622047">
 <metadata id="metadata7">
  <rdf:RDF>
   <cc:Work rdf:about="">
    <dc:format>image/svg+xml</dc:format>
    <dc:type rdf:resource="http://purl.org/dc/dcmitype/StillImage"/>
    <dc:title/>
   </cc:Work>
  </rdf:RDF>
 </metadata>
 <g id="layer1">
  <path id="path3401" d="m333.08 516.33c-14.134-2.0008-18.627-3.2911-28.294-8.1263-25.495-12.752-64.459-53.638-73.529-77.157-6.3299-16.414-6.7727-19.591-6.0903-43.7 0.61294-21.652 0.792-22.86 7.0026-47.221 5.958-23.37 11.838-40.812 16.224-48.125 6.4584-10.768 16.257-16.575 39.286-23.28 15.072-4.3884 15.466-4.4338 31.513-3.6277 40.3 2.0245 45.589 3.2565 65.377 15.229 14.858 8.9892 23.784 17.123 31.754 28.934 8.1896 12.136 10.158 16.6 23.593 53.504 13.472 37.006 14.858 42.425 14.883 58.165 0.0226 14.779-2.2598 27.259-8.5555 46.78-5.4605 16.931-8.6303 23.731-12.867 27.601-4.1039 3.7491-24.63 13.823-37.309 18.31-9.8642 3.4914-12.057 3.7858-30.625 4.1114-12.362 0.21684-24.721-0.31753-32.363-1.3992zm56.738-17.459c13.105-4.167 31.696-13.58 34.117-17.275 3.3509-5.1142 13.12-37.649 14.659-48.822 2.4391-17.704 0.6791-25.808-14.908-68.651-10.281-28.259-12.993-34.481-19.348-44.395-9.8509-15.368-23.596-25.306-44.191-31.949-16.129-5.2027-25.971-6.8344-43.509-7.2134-10.482-0.22655-14.318 0.28313-24.32 3.2313-15.351 4.5249-24.126 8.6811-27.968 13.247-4.2996 5.1098-9.8579 20.162-15.014 40.66-8.8636 35.236-9.8022 41.044-9.2697 57.358 0.89526 27.428 8.6326 42.077 37.17 70.374 18.863 18.704 34.32 29.97 45.025 32.818 21.34 5.6772 50.795 5.946 67.557 0.61647z"/>
 </g>
</svg>
