<?xml version="1.0" encoding="UTF-8" standalone="no"?>
<!-- Created with Inkscape (http://www.inkscape.org/) -->

<svg
   xmlns:dc="http://purl.org/dc/elements/1.1/"
   xmlns:cc="http://creativecommons.org/ns#"
   xmlns:rdf="http://www.w3.org/1999/02/22-rdf-syntax-ns#"
   xmlns:svg="http://www.w3.org/2000/svg"
   xmlns="http://www.w3.org/2000/svg"
   xmlns:sodipodi="http://sodipodi.sourceforge.net/DTD/sodipodi-0.dtd"
   xmlns:inkscape="http://www.inkscape.org/namespaces/inkscape"
   width="379.13385"
   height="757.87"
   viewBox="0 0 379.13363 757.86954"
   id="svg3432"
   version="1.1"
   inkscape:version="0.48.2 r9819"
   sodipodi:docname="SvgSuttuReunaMuutos.svg">
  <defs
     id="defs3434" />
  <sodipodi:namedview
     id="base"
     pagecolor="#ffffff"
     bordercolor="#666666"
     borderopacity="1.0"
     inkscape:pageopacity="0.0"
     inkscape:pageshadow="2"
     inkscape:zoom="0.35"
     inkscape:cx="0.71428571"
     inkscape:cy="520"
     inkscape:document-units="px"
     inkscape:current-layer="layer1"
     showgrid="false"
     inkscape:window-width="1920"
     inkscape:window-height="1017"
     inkscape:window-x="-8"
     inkscape:window-y="-8"
     inkscape:window-maximized="1" />
  <metadata
     id="metadata3437">
    <rdf:RDF>
      <cc:Work
         rdf:about="">
        <dc:format>image/svg+xml</dc:format>
        <dc:type
           rdf:resource="http://purl.org/dc/dcmitype/StillImage" />
        <dc:title></dc:title>
      </cc:Work>
    </rdf:RDF>
  </metadata>
  <g
     inkscape:label="Layer 1"
     inkscape:groupmode="layer"
     id="layer1"
     transform="translate(0,-294.49293)">
    <path
       style="fill:#000000"
       d="m 250.09694,643.71293 c -3.91675,-5.5526 -8.52756,-15.424 -10.65546,-22.8125 -2.77756,-9.6444 -6.07401,-12.6422 -37.71496,-34.29819 -19.67483,-13.466 -50.15981,-28.83192 -67.5,-34.02328 -9.10039,-2.72451 -13.75788,-3.36984 -24.375,-3.37739 -7.21875,-0.005 -15.781681,0.44645 -19.028741,1.00351 -5.65747,0.97057 -6.07461,0.83358 -10,-3.28403 -2.25294,-2.36327 -6.90876,-7.89391 -10.34626,-12.2903 -3.4375,-4.3964 -11.875,-14.00096 -18.75,-21.34346 -31.61389,-33.76367 -38.27323,-42.75439 -39.07566,-52.75566 -0.66367,-8.27169 2.32391,-13.01666 13.14745,-20.88125 4.25773,-3.09375 7.61463,-6.39223 7.45977,-7.32994 -0.15486,-0.93771 -2.25031,-2.4362 -4.65656,-3.32998 -2.40625,-0.89379 -7.04687,-2.59362 -10.3125,-3.77739 l -5.9375,-2.15234 0,-9.35096 c 0,-8.33384 0.23794,-9.2763 2.1875,-8.66454 1.20313,0.37752 9.21875,3.64581 17.8125,7.26285 14.07863,5.92558 16.55282,6.58086 25,6.62116 5.15625,0.0246 14.4375,-0.97633 20.625,-2.22431 15.01416,-3.02825 19.05151,-2.83152 35.766001,1.74278 22.05475,6.03577 20.73074,6.01193 21.53964,0.38787 0.38051,-2.64561 1.03625,-7.99651 1.4572,-11.89089 0.57267,-5.29802 1.7909,-8.44505 4.83882,-12.49999 2.2404,-2.98062 7.36939,-9.80868 11.39774,-15.17348 4.02835,-5.36479 12.56707,-14.76632 18.97494,-20.89228 6.40786,-6.12595 11.65066,-11.4397 11.65066,-11.80833 0,-0.36862 -38.53125,-0.67022 -85.625001,-0.67022 l -85.625,0 0,-8.75 0,-8.75 89.687501,0.01 c 55.36174,0.006 92.7161,0.50089 97.60072,1.29351 6.96015,1.12942 9.29369,0.91731 19.375,-1.76117 16.19555,-4.30296 19.17804,-4.64559 28.33678,-3.25535 4.46875,0.67833 12.0625,1.76343 16.875,2.41133 11.184,1.50569 31.20078,8.93855 35.71271,13.26127 1.91435,1.83406 4.12203,4.88311 4.90595,6.77566 1.2685,3.06244 5.72209,6.2653 8.7119,6.2653 0.59836,0 1.27501,-9.72982 1.50369,-21.62182 0.34852,-18.12575 0.77411,-22.16804 2.63206,-25 3.05339,-4.65406 8.76529,-4.65294 11.81738,0.002 4.12997,6.29935 2.54767,87.43457 -2.10369,107.86951 -0.5477,2.40625 -2.99025,11.125 -5.42789,19.375 -2.43764,8.25 -4.82426,17.13318 -5.30362,19.74038 -0.49482,2.69128 -2.43223,6.30106 -4.48203,8.35085 -5.95137,5.95138 -13.12502,6.74042 -52.6409,5.79002 -30.38735,-0.73085 -35.15136,-0.58733 -38.53185,1.16079 -7.14244,3.6935 -16.69529,4.39246 -33.54956,2.45478 -8.65929,-0.99554 -17.00978,-2.17082 -18.55665,-2.61173 -4.52583,-1.29002 -3.43224,1.68982 4.85897,13.23991 17.55237,24.45138 32.96684,41.29554 46.70327,51.03496 9.70072,6.87803 24.29523,13.14695 27.62887,11.86772 0.89715,-0.34427 2.83799,-2.67134 4.31299,-5.17128 5.13554,-8.70407 19.69245,-27.15004 26.51241,-33.59551 7.62643,-7.20765 21.63771,-16.66961 30.65604,-20.70235 4.88115,-2.1827 8.45906,-2.64876 20.88995,-2.72118 17.65281,-0.10275 24.52021,1.90065 30.72035,8.96222 3.73232,4.25087 3.92637,4.9544 3.34933,12.14312 -1.37929,17.18298 -14.86801,32.38494 -39.69468,44.73644 -23.9532,11.91692 -29.94706,13.69689 -48.48159,14.39736 -13.60576,0.5142 -16.79745,0.99316 -17.66282,2.65056 -2.24018,4.29046 -5.10559,20.40983 -5.10559,28.72143 l 0,8.70501 13.35359,13.5482 c 11.71658,11.8875 22.89641,26.2268 22.89641,29.3672 0,0.5809 -8.3992,1.0562 -18.66489,1.0562 l -18.66487,0 -2.42482,-3.4375 z m -13.4715,-58.12505 c 0.31435,-1.54688 1.5105,-6.88998 2.6581,-11.87355 1.14762,-4.98358 1.78199,-9.85475 1.40974,-10.82483 -0.37225,-0.97007 -3.66706,-2.64089 -7.3218,-3.71295 -9.17196,-2.6904 -20.35962,-9.59838 -32.53723,-20.09057 -17.37849,-14.97326 -42.61736,-46.75414 -51.33186,-64.63729 -2.90173,-5.95467 -6.27752,-11.4546 -7.50176,-12.22206 -2.12956,-1.335 -15.29938,-5.05046 -52.149111,-14.7123 -27.42311,-7.19021 -28.10621,-7.29996 -34.71377,-5.57718 -5.92714,1.54538 -22.2226,11.8858 -24.55306,15.58035 -1.68348,2.66888 0.65642,6.81977 9.59965,17.0294 3.9643,4.52567 10.99555,12.64707 15.625,18.04755 4.62945,5.40049 12.09664,13.83799 16.59376,18.75 4.49712,4.91202 10.2544,11.54667 12.79397,14.74369 l 4.61739,5.81275 14.706031,-0.0113 c 26.97655,-0.0214 49.84783,7.29129 83.2824,26.62809 15.79212,9.13331 20.81002,12.37581 36.04999,23.29499 5.018,3.59531 9.81605,6.54843 10.66233,6.5625 0.84627,0.0141 1.79587,-1.24005 2.11023,-2.78693 z m 62.20634,-43.95114 c 22.1178,-8.00631 37.82264,-18.10237 44.45724,-28.57991 4.43204,-6.9992 5.16827,-11.46465 2.08526,-12.64771 -1.08747,-0.41731 -7.34635,-0.75874 -13.90861,-0.75874 -11.65019,0 -12.15595,0.12313 -21.46026,5.2215 -5.24089,2.87181 -11.40933,6.63474 -13.70764,8.36202 -6.12574,4.60379 -26.44625,28.95699 -26.44625,31.69462 0,0.53452 3.8704,0.97186 8.60089,0.97186 6.65133,0 11.27068,-0.96643 20.37937,-4.26364 z m 0.6227,-92.22141 c 0.7082,-0.90198 2.8168,-7.26495 4.68578,-14.13995 1.86899,-6.875 4.2473,-15.03125 5.28513,-18.125 1.03785,-3.09375 2.38338,-11.25 2.99005,-18.125 0.60668,-6.87499 1.47558,-15.9546 1.93088,-20.1769 l 0.82784,-7.67691 -7.33062,-2.13106 c -4.91596,-1.42911 -7.95356,-1.73812 -9.22184,-0.93811 -1.04018,0.65613 -9.77673,16.75015 -19.41455,35.76448 -14.25845,28.13029 -18.52857,35.4904 -22.91865,39.50333 -2.96743,2.71249 -5.12044,5.37581 -4.78448,5.91848 0.33596,0.54268 10.97255,1.16217 23.63685,1.37664 17.8817,0.30282 23.31366,0.0235 24.31361,-1.25 z m -68.06181,-5.40534 c 2.54183,-1.72721 6.17901,-5.80534 8.08264,-9.0625 1.90362,-3.25716 5.00249,-7.2255 6.88636,-8.81854 1.88388,-1.59303 6.1566,-7.78053 9.49496,-13.75 6.01137,-10.74918 25.24489,-49.40389 25.24489,-50.73608 0,-1.50323 -10.39809,-5.87103 -18.41085,-7.73361 -12.84388,-2.98559 -31.08026,-5.50887 -39.81393,-5.50887 -13.98185,0 -27.8566,9.38152 -49.63863,33.56358 -5.35614,5.94628 -11.19528,13.90516 -12.97588,17.68641 -1.7806,3.78125 -4.28894,8.36809 -5.57409,10.19296 -1.71247,2.43168 -2.33662,5.52738 -2.33662,11.5893 0,7.40718 0.29384,8.39023 2.8125,9.40931 5.73361,2.31989 33.1943,9.93744 44.6875,12.39624 6.53125,1.39726 13,2.78386 14.375,3.08133 6.93168,1.49961 12.70322,0.72311 17.16615,-2.30953 z"
       id="path3416"
       inkscape:connector-curvature="0" />
  </g>
</svg>
