<?xml version="1.0" encoding="UTF-8" standalone="no"?>
<!-- Created with Inkscape (http://www.inkscape.org/) -->

<svg
   xmlns:dc="http://purl.org/dc/elements/1.1/"
   xmlns:cc="http://creativecommons.org/ns#"
   xmlns:rdf="http://www.w3.org/1999/02/22-rdf-syntax-ns#"
   xmlns:svg="http://www.w3.org/2000/svg"
   xmlns="http://www.w3.org/2000/svg"
   xmlns:sodipodi="http://sodipodi.sourceforge.net/DTD/sodipodi-0.dtd"
   xmlns:inkscape="http://www.inkscape.org/namespaces/inkscape"
   id="svg3387"
   version="1.1"
   inkscape:version="0.91 r13725"
   width="250"
   height="250"
   viewBox="0 0 250 250"
   sodipodi:docname="Viisiviivaa.svg">
  <metadata
     id="metadata3393">
    <rdf:RDF>
      <cc:Work
         rdf:about="">
        <dc:format>image/svg+xml</dc:format>
        <dc:type
           rdf:resource="http://purl.org/dc/dcmitype/StillImage" />
        <dc:title></dc:title>
      </cc:Work>
    </rdf:RDF>
  </metadata>
  <defs
     id="defs3391" />
  <sodipodi:namedview
     pagecolor="#ffffff"
     bordercolor="#666666"
     borderopacity="1"
     objecttolerance="10"
     gridtolerance="10"
     guidetolerance="10"
     inkscape:pageopacity="0"
     inkscape:pageshadow="2"
     inkscape:window-width="1920"
     inkscape:window-height="1021"
     id="namedview3389"
     showgrid="false"
     inkscape:zoom="3.364"
     inkscape:cx="125"
     inkscape:cy="125"
     inkscape:window-x="0"
     inkscape:window-y="0"
     inkscape:window-maximized="1"
     inkscape:current-layer="svg3387" />
  <path
     style="fill:#000000"
     d="m 53.319234,237.43969 c -7.727307,-1.29679 -11.060658,-4.2121 -10.567389,-9.24213 0.594482,-6.06211 4.153718,-7.01242 20.373155,-5.4396 12.569449,1.21889 14.63257,1.10407 24.02938,-1.3373 5.799526,-1.50676 14.13191,-2.67066 19.11932,-2.67066 7.71894,0 9.22901,0.38907 11.90812,3.06819 3.57527,3.57527 3.79192,5.34226 1.1223,9.15367 -1.61955,2.31224 -3.13935,2.78173 -9.0625,2.79957 -3.91414,0.0118 -11.33537,1.12713 -16.49162,2.47857 -9.938359,2.60481 -28.707351,3.15709 -40.430766,1.18969 z m 101.157476,-52.1819 c -7.40459,-2.56859 -11.42397,-7.3095 -10.23005,-12.06649 1.36238,-5.42811 5.35018,-6.30236 15.06325,-3.3023 10.85675,3.35331 24.1285,3.39008 40.06509,0.111 16.17329,-3.32779 25.53186,-3.31215 29.1393,0.0488 1.50464,1.40172 2.7357,3.62981 2.7357,4.95125 0,3.78212 -4.90299,7.4975 -9.9232,7.51959 -2.44849,0.0113 -9.74031,1.13576 -16.20404,2.5 -15.4418,3.25912 -41.58304,3.38207 -50.64605,0.2382 z M 39.052982,141.88241 c -5.246025,-2.27996 -7.363176,-7.33471 -4.745448,-11.32987 1.621327,-2.47447 3.184545,-2.93647 11.595711,-3.42707 5.346965,-0.31187 16.753005,-1.24209 25.346755,-2.06717 21.813616,-2.09429 34.67508,0.51037 36.88386,7.4696 0.49262,1.55214 0.007,3.84119 -1.20972,5.69754 l -2.03318,3.10302 -17.75798,-0.82816 c -14.374144,-0.67035 -19.265914,-0.43964 -25.671439,1.21077 -9.607035,2.47528 -16.977687,2.53164 -22.408558,0.17134 z M 145.625,104.37133 C 140.40496,102.52454 135,97.403929 135,94.305295 135,91.967531 139.47325,87.5 141.81401,87.5 c 0.99771,0 5.05339,0.84375 9.01263,1.875 9.57632,2.494316 17.50702,2.327422 30.98503,-0.652052 12.44479,-2.751067 27.64877,-3.234728 32.48049,-1.033252 3.50029,1.59484 5.01198,4.845179 3.89305,8.370608 -1.03904,3.273695 -5.99976,5.184496 -13.55652,5.221786 -3.57703,0.0177 -11.28494,1.12821 -17.12869,2.46791 -12.88403,2.95371 -34.38085,3.27267 -41.875,0.62133 z M 40.110568,44.00246 C 37.76513,42.832357 34.714311,40.344378 33.330969,38.473616 31.233816,35.637535 31.052565,34.552593 32.24039,31.9456 c 1.936725,-4.250647 6.42356,-5.090281 13.911291,-2.603256 5.335118,1.772041 9.340663,1.950712 26.817737,1.196232 l 20.545837,-0.886957 3.242373,3.242372 c 3.871672,3.871674 3.956772,4.696805 0.876663,8.500576 -2.004617,2.475598 -3.96026,3.053947 -12.8125,3.789084 -20.150025,1.673365 -40.04276,1.147835 -44.711223,-1.181191 z"
     id="path3397"
     inkscape:connector-curvature="0" />
</svg>
