<?xml version="1.0" encoding="UTF-8" standalone="no"?>
<!-- Created with Inkscape (http://www.inkscape.org/) -->
<svg id="svg3387" xmlns:rdf="http://www.w3.org/1999/02/22-rdf-syntax-ns#" xmlns="http://www.w3.org/2000/svg" height="250" viewBox="0 0 250 250" width="250" version="1.1" xmlns:cc="http://creativecommons.org/ns#" xmlns:dc="http://purl.org/dc/elements/1.1/">
 <metadata id="metadata3393">
  <rdf:RDF>
   <cc:Work rdf:about="">
    <dc:format>image/svg+xml</dc:format>
    <dc:type rdf:resource="http://purl.org/dc/dcmitype/StillImage"/>
    <dc:title/>
   </cc:Work>
  </rdf:RDF>
 </metadata>
 <path id="path3397" d="m53.319 237.44c-7.7273-1.2968-11.061-4.2121-10.567-9.2421 0.59448-6.0621 4.1537-7.0124 20.373-5.4396 12.569 1.2189 14.633 1.1041 24.029-1.3373 5.7995-1.5068 14.132-2.6707 19.119-2.6707 7.7189 0 9.229 0.38907 11.908 3.0682 3.5753 3.5753 3.7919 5.3423 1.1223 9.1537-1.6196 2.3122-3.1394 2.7817-9.0625 2.7996-3.9141 0.0118-11.335 1.1271-16.492 2.4786-9.9384 2.6048-28.707 3.1571-40.431 1.1897zm101.16-52.182c-7.4046-2.5686-11.424-7.3095-10.23-12.066 1.3624-5.4281 5.3502-6.3024 15.063-3.3023 10.857 3.3533 24.128 3.3901 40.065 0.111 16.173-3.3278 25.532-3.3122 29.139 0.0488 1.5046 1.4017 2.7357 3.6298 2.7357 4.9512 0 3.7821-4.903 7.4975-9.9232 7.5196-2.4485 0.0113-9.7403 1.1358-16.204 2.5-15.442 3.2591-41.583 3.3821-50.646 0.2382zm-115.43-43.38c-5.246-2.28-7.3632-7.3347-4.7454-11.33 1.6213-2.4745 3.1845-2.9365 11.596-3.4271 5.347-0.31187 16.753-1.2421 25.347-2.0672 21.814-2.0943 34.675 0.51037 36.884 7.4696 0.49262 1.5521 0.007 3.8412-1.2097 5.6975l-2.0332 3.103-17.758-0.82816c-14.374-0.67035-19.266-0.43964-25.671 1.2108-9.607 2.4753-16.978 2.5316-22.409 0.17134zm106.57-37.51c-5.22-1.85-10.62-6.966-10.62-10.065 0-2.337 4.47-6.805 6.81-6.805 0.99771 0 5.0534 0.84375 9.0126 1.875 9.5763 2.4943 17.507 2.3274 30.985-0.65205 12.445-2.7511 27.649-3.2347 32.48-1.0333 3.5003 1.5948 5.012 4.8452 3.893 8.3706-1.039 3.2737-5.9998 5.1845-13.557 5.2218-3.577 0.0177-11.285 1.1282-17.129 2.4679-12.884 2.9537-34.381 3.2727-41.875 0.62133zm-105.51-60.368c-2.346-1.17-5.397-3.658-6.78-5.528-2.097-2.836-2.278-3.921-1.091-6.528 1.9367-4.2506 6.4236-5.0903 13.911-2.6033 5.3351 1.772 9.3407 1.9507 26.818 1.1962l20.546-0.88696 3.2424 3.2424c3.8717 3.8717 3.9568 4.6968 0.87666 8.5006-2.0046 2.4756-3.9603 3.0539-12.812 3.7891-20.15 1.6734-40.043 1.1478-44.711-1.1812z"/>
</svg>
